ply
format ascii 1.0
comment VCGLIB generated
element vertex 312
property float x
property float y
property float z
property float nx
property float ny
property float nz
property float texture_u
property float texture_v
element face 104
property list uchar int vertex_indices
end_header
-0.32896 0.99084 -0.328936 -0.4472136 0.8944272 0 0.122642 0.999023
-0.32896 0.99084 0.332964 0 1 0 0.000977 0.999023
0.33294 0.99084 0.332964 0 1 0 0.000977 0.877358
0.33294 0.99084 -0.328936 0.8944272 0.4472136 0 0.124023 0.875977
-0.32896 0.32894 -0.3289362 0 -1 0 0.247642 0.999023
0.33294 0.32894 -0.3289362 0 -1 0 0.125977 0.999023
0.33294 0.32894 0.3329638 0.7071068 -0.7071068 0 0.125977 0.877358
-0.32896 0.32894 0.3329638 -0.7071068 -0.7071068 0 0.249023 0.875977
-0.32896 0.99084 -0.328936 0 2.881627e-07 -1 0.372642 0.999023
0.33294 0.99084 -0.328936 0 2.881627e-07 -1 0.250977 0.999023
0.33294 0.32894 -0.3289362 0 2.881627e-07 -1 0.250977 0.877358
-0.32896 0.32894 -0.3289362 0 2.881627e-07 -1 0.374023 0.875977
0.33294 0.99084 0.332964 1 0 0 0.375977 0.999023
0.33294 0.32894 -0.3289362 1 0 0 0.499023 0.875977
0.33294 0.99084 0.332964 0 -3.24183e-07 1 0.622642 0.999023
-0.32896 0.99084 0.332964 0 -3.24183e-07 1 0.500977 0.999023
-0.32896 0.32894 0.3329638 0 -3.24183e-07 1 0.500977 0.877358
0.33294 0.32894 0.3329638 0 -3.24183e-07 1 0.624023 0.875977
-0.32896 0.99084 0.332964 -1 0 0 0.747642 0.999023
-0.32896 0.32894 -0.3289362 -1 0 0 0.625977 0.877358
0.32868 -1.0004 -0.3286764 -0.9999866 -0.00366502 -0.003664912 0.872642 0.999023
0.3262 -0.3262199 -0.3261963 -0.9999866 -0.00366502 -0.003664912 0.750977 0.999023
0.32868 -0.3286999 -1.000396 -0.9999866 -0.00366502 -0.003664912 0.750977 0.877358
0.32868 -1.0004 -0.3286764 0.5773445 -0.5773616 -0.5773448 0.874023 0.875977
0.32868 -0.3286999 -1.000396 0.5773445 -0.5773616 -0.5773448 0.874023 0.997642
1.0004 -0.3287001 -0.3286762 0.5773445 -0.5773616 -0.5773448 0.752358 0.875977
1.0004 -0.3287001 -0.3286762 0.003665231 0.9999866 -0.003664947 0.875977 0.877358
0.32868 -0.3286999 -1.000396 0.003665231 0.9999866 -0.003664947 0.997642 0.999023
0.3262 -0.3262199 -0.3261963 0.003665231 0.9999866 -0.003664947 0.875977 0.999023
0.32868 -1.0004 -0.3286764 0.00366491 -0.003665303 0.9999866 0.999023 0.997642
1.0004 -0.3287001 -0.3286762 0.00366491 -0.003665303 0.9999866 0.877358 0.875977
0.3262 -0.3262199 -0.3261963 0.00366491 -0.003665303 0.9999866 0.999023 0.875977
-0.3287 -1.0004 -0.3286764 0.9999866 -0.00366502 -0.003664912 0.000977 0.752358
-0.3287 -0.3286999 -1.000396 0.9999866 -0.00366502 -0.003664912 0.122642 0.874023
-0.32622 -0.3262199 -0.3261963 0.9999866 -0.00366502 -0.003664912 0.000977 0.874023
-0.3287 -1.0004 -0.3286764 -0.577356 -0.5773559 -0.5773391 0.124023 0.750977
-1.0004 -0.3287001 -0.3286762 -0.577356 -0.5773559 -0.5773391 0.124023 0.872642
-0.3287 -0.3286999 -1.000396 -0.577356 -0.5773559 -0.5773391 0.002358 0.750977
-1.0004 -0.3287001 -0.3286762 -0.003665339 0.9999866 -0.003664946 0.247642 0.874023
-0.32622 -0.3262199 -0.3261963 -0.003665339 0.9999866 -0.003664946 0.125977 0.874023
-0.3287 -0.3286999 -1.000396 -0.003665339 0.9999866 -0.003664946 0.125977 0.752358
-0.3287 -1.0004 -0.3286764 -0.003665019 -0.003665303 0.9999866 0.127358 0.750977
-0.32622 -0.3262199 -0.3261963 -0.003665019 -0.003665303 0.9999866 0.249023 0.750977
-1.0004 -0.3287001 -0.3286762 -0.003665019 -0.003665303 0.9999866 0.249023 0.872642
0.32868 -1.0004 0.3287036 -0.9999866 -0.003665022 0.003665019 0.250977 0.752358
0.32868 -0.3287003 1.000404 -0.9999866 -0.003665022 0.003665019 0.372642 0.874023
0.3262 -0.32622 0.3262238 -0.9999866 -0.003665022 0.003665019 0.250977 0.874023
0.32868 -1.0004 0.3287036 0.5773386 -0.5773563 0.5773559 0.374023 0.750977
1.0004 -0.3287003 0.3287038 0.5773386 -0.5773563 0.5773559 0.374023 0.872642
0.32868 -0.3287003 1.000404 0.5773386 -0.5773563 0.5773559 0.252358 0.750977
1.0004 -0.3287003 0.3287038 0.003665229 0.9999866 0.003665338 0.497642 0.874023
0.3262 -0.32622 0.3262238 0.003665229 0.9999866 0.003665338 0.375977 0.874023
0.32868 -0.3287003 1.000404 0.003665229 0.9999866 0.003665338 0.375977 0.752358
0.32868 -1.0004 0.3287036 0.003664911 -0.003664703 -0.9999866 0.377358 0.750977
0.3262 -0.32622 0.3262238 0.003664911 -0.003664703 -0.9999866 0.499023 0.750977
1.0004 -0.3287003 0.3287038 0.003664911 -0.003664703 -0.9999866 0.499023 0.872642
-0.3287 -1.0004 0.3287036 0.9999866 -0.003665022 0.003665019 0.622642 0.874023
-0.32622 -0.32622 0.3262238 0.9999866 -0.003665022 0.003665019 0.500977 0.874023
-0.3287 -0.3287003 1.000404 0.9999866 -0.003665022 0.003665019 0.500977 0.752358
-0.3287 -1.0004 0.3287036 -0.5773501 -0.5773506 0.5773501 0.624023 0.750977
-0.3287 -0.3287003 1.000404 -0.5773501 -0.5773506 0.5773501 0.624023 0.872642
-1.0004 -0.3287003 0.3287038 -0.5773501 -0.5773506 0.5773501 0.502358 0.750977
-1.0004 -0.3287003 0.3287038 -0.003665338 0.9999866 0.003665338 0.625977 0.752358
-0.3287 -0.3287003 1.000404 -0.003665338 0.9999866 0.003665338 0.747642 0.874023
-0.32622 -0.32622 0.3262238 -0.003665338 0.9999866 0.003665338 0.625977 0.874023
-0.3287 -1.0004 0.3287036 -0.003665021 -0.003664703 -0.9999866 0.749023 0.872642
-1.0004 -0.3287003 0.3287038 -0.003665021 -0.003664703 -0.9999866 0.627358 0.750977
-0.32622 -0.32622 0.3262238 -0.003665021 -0.003664703 -0.9999866 0.749023 0.750977
-0.32896 -0.3329599 -0.3309362 -0.4472136 0.8944272 2.577405e-07 0.872642 0.874023
-0.32896 -0.33296 0.3309638 0 1 2.881627e-07 0.750977 0.874023
0.33294 -0.33296 0.3309638 0 1 2.881627e-07 0.750977 0.752358
0.33294 -0.3329599 -0.3309362 0.8944272 0.4472136 1.288703e-07 0.874023 0.750977
-0.32896 -0.9948601 -0.3309364 0 -1 0 0.997642 0.874023
0.33294 -0.9948601 -0.3309364 0 -1 0 0.875977 0.874023
0.33294 -0.9948601 0.3309636 0.7071068 -0.7071068 0 0.875977 0.752358
-0.32896 -0.9948601 0.3309636 -0.7071068 -0.7071068 0 0.999023 0.750977
-0.32896 -0.3329599 -0.3309362 0 2.881626e-07 -1 0.122642 0.749023
0.33294 -0.3329599 -0.3309362 0 2.881626e-07 -1 0.000977 0.749023
0.33294 -0.9948601 -0.3309364 0 2.881626e-07 -1 0.000977 0.627358
-0.32896 -0.9948601 -0.3309364 0 2.881626e-07 -1 0.124023 0.625977
0.33294 -0.33296 0.3309638 1 0 0 0.125977 0.749023
0.33294 -0.9948601 -0.3309364 1 0 0 0.249023 0.625977
0.33294 -0.33296 0.3309638 0 -2.881626e-07 1 0.372642 0.749023
-0.32896 -0.33296 0.3309638 0 -2.881626e-07 1 0.250977 0.749023
-0.32896 -0.9948601 0.3309636 0 -2.881626e-07 1 0.250977 0.627358
0.33294 -0.9948601 0.3309636 0 -2.881626e-07 1 0.374023 0.625977
-0.32896 -0.33296 0.3309638 -1 0 0 0.497642 0.749023
-0.32896 -0.9948601 -0.3309364 -1 0 0 0.375977 0.627358
0.33694 0.33094 -0.3229362 -0.4472136 0.8944272 0 0.622642 0.749023
0.33694 0.33094 0.3389638 0 1 0 0.500977 0.749023
0.99884 0.33094 0.3389638 0 1 0 0.500977 0.627358
0.99884 0.33094 -0.3229362 0.8944272 0.4472136 0 0.624023 0.625977
0.33694 -0.3309601 -0.3229362 0 -1 -2.881627e-07 0.747642 0.749023
0.99884 -0.3309601 -0.3229362 0 -1 -2.881627e-07 0.625977 0.749023
0.99884 -0.3309603 0.3389638 0.7071068 -0.7071068 -2.037618e-07 0.625977 0.627358
0.33694 -0.3309603 0.3389638 -0.7071068 -0.7071068 -2.037618e-07 0.749023 0.625977
0.33694 0.33094 -0.3229362 0 0 -1 0.872642 0.749023
0.99884 0.33094 -0.3229362 0 0 -1 0.750977 0.749023
0.99884 -0.3309601 -0.3229362 0 0 -1 0.750977 0.627358
0.33694 -0.3309601 -0.3229362 0 0 -1 0.874023 0.625977
0.99884 0.33094 0.3389638 1 0 0 0.875977 0.749023
0.99884 -0.3309601 -0.3229362 1 0 0 0.999023 0.625977
0.99884 0.33094 0.3389638 0 0 1 0.122642 0.624023
0.33694 0.33094 0.3389638 0 0 1 0.000977 0.624023
0.33694 -0.3309603 0.3389638 0 0 1 0.000977 0.502358
0.99884 -0.3309603 0.3389638 0 0 1 0.124023 0.500977
0.33694 0.33094 0.3389638 -1 0 0 0.247642 0.624023
0.33694 -0.3309601 -0.3229362 -1 0 0 0.125977 0.502358
-0.98884 0.32694 -0.3229362 -0.4472136 0.8944272 0 0.372642 0.624023
-0.98884 0.32694 0.3389638 0 1 0 0.250977 0.624023
-0.32696 0.32694 0.3389638 0 1 0 0.250977 0.502358
-0.32696 0.32694 -0.3229362 0.8944272 0.4472136 0 0.374023 0.500977
-0.98884 -0.3349601 -0.3229362 0 -1 -2.881627e-07 0.497642 0.624023
-0.32696 -0.3349601 -0.3229362 0 -1 -2.881627e-07 0.375977 0.624023
-0.32696 -0.3349603 0.3389638 0.7071068 -0.7071068 -2.037618e-07 0.375977 0.502358
-0.98884 -0.3349603 0.3389638 -0.7071068 -0.7071068 -2.037618e-07 0.499023 0.500977
-0.98884 0.32694 -0.3229362 0 0 -1 0.622642 0.624023
-0.32696 0.32694 -0.3229362 0 0 -1 0.500977 0.624023
-0.32696 -0.3349601 -0.3229362 0 0 -1 0.500977 0.502358
-0.98884 -0.3349601 -0.3229362 0 0 -1 0.624023 0.500977
-0.32696 0.32694 0.3389638 1 0 0 0.625977 0.624023
-0.32696 -0.3349601 -0.3229362 1 0 0 0.749023 0.500977
-0.32696 0.32694 0.3389638 0 0 1 0.872642 0.624023
-0.98884 0.32694 0.3389638 0 0 1 0.750977 0.624023
-0.98884 -0.3349603 0.3389638 0 0 1 0.750977 0.502358
-0.32696 -0.3349603 0.3389638 0 0 1 0.874023 0.500977
-0.98884 0.32694 0.3389638 -1 0 0 0.997642 0.624023
-0.98884 -0.3349601 -0.3229362 -1 0 0 0.875977 0.502358
-0.32296 0.3329402 -0.9868361 -0.4472136 0.8944272 2.577407e-07 0.122642 0.499023
-0.32296 0.33294 -0.3249362 0 1 2.881628e-07 0.000977 0.499023
0.33894 0.33294 -0.3249362 0 1 2.881628e-07 0.000977 0.377358
0.33894 0.3329402 -0.9868361 0.8944272 0.4472136 1.288703e-07 0.124023 0.375977
-0.32296 -0.3289599 -0.9868363 0 -1 -2.881627e-07 0.247642 0.499023
0.33894 -0.3289599 -0.9868363 0 -1 -2.881627e-07 0.125977 0.499023
0.33894 -0.32896 -0.3249362 0.7071068 -0.7071068 -2.037618e-07 0.125977 0.377358
-0.32296 -0.32896 -0.3249362 -0.7071068 -0.7071068 -2.037618e-07 0.249023 0.375977
-0.32296 0.3329402 -0.9868361 0 2.881627e-07 -1 0.372642 0.499023
0.33894 0.3329402 -0.9868361 0 2.881627e-07 -1 0.250977 0.499023
0.33894 -0.3289599 -0.9868363 0 2.881627e-07 -1 0.250977 0.377358
-0.32296 -0.3289599 -0.9868363 0 2.881627e-07 -1 0.374023 0.375977
0.33894 0.33294 -0.3249362 1 0 0 0.375977 0.499023
0.33894 -0.3289599 -0.9868363 1 0 0 0.499023 0.375977
0.33894 0.33294 -0.3249362 0 0 1 0.622642 0.499023
-0.32296 0.33294 -0.3249362 0 0 1 0.500977 0.499023
-0.32296 -0.32896 -0.3249362 0 0 1 0.500977 0.377358
0.33894 -0.32896 -0.3249362 0 0 1 0.624023 0.375977
-0.32296 0.33294 -0.3249362 -1 0 0 0.747642 0.499023
-0.32296 -0.3289599 -0.9868363 -1 0 0 0.625977 0.377358
-0.33096 0.33094 0.3309638 -0.4472136 0.8944272 2.577483e-07 0.872642 0.499023
-0.33096 0.3309398 0.992844 0 1 2.881713e-07 0.750977 0.499023
0.33094 0.3309398 0.992844 0 1 2.881713e-07 0.750977 0.377358
0.33094 0.33094 0.3309638 0.8944272 0.4472136 1.288741e-07 0.874023 0.375977
-0.33096 -0.3309603 0.3309638 0 -1 0 0.997642 0.499023
0.33094 -0.3309603 0.3309638 0 -1 0 0.875977 0.499023
0.33094 -0.3309603 0.9928438 0.7071068 -0.7071068 0 0.875977 0.377358
-0.33096 -0.3309603 0.9928438 -0.7071068 -0.7071068 0 0.999023 0.375977
-0.33096 0.33094 0.3309638 0 0 -1 0.122642 0.374023
0.33094 0.33094 0.3309638 0 0 -1 0.000977 0.374023
0.33094 -0.3309603 0.3309638 0 0 -1 0.000977 0.252358
-0.33096 -0.3309603 0.3309638 0 0 -1 0.124023 0.250977
0.33094 0.3309398 0.992844 1 0 0 0.125977 0.374023
0.33094 -0.3309603 0.3309638 1 0 0 0.249023 0.250977
0.33094 0.3309398 0.992844 0 -2.881626e-07 1 0.372642 0.374023
-0.33096 0.3309398 0.992844 0 -2.881626e-07 1 0.250977 0.374023
-0.33096 -0.3309603 0.9928438 0 -2.881626e-07 1 0.250977 0.252358
0.33094 -0.3309603 0.9928438 0 -2.881626e-07 1 0.374023 0.250977
-0.33096 0.3309398 0.992844 -1 0 0 0.497642 0.374023
-0.33096 -0.3309603 0.3309638 -1 0 0 0.375977 0.252358
0.32868 1.00038 -0.328676 -0.9999866 0.003665022 -0.003664912 0.500977 0.252358
0.32868 0.3286802 -1.000396 -0.9999866 0.003665022 -0.003664912 0.622642 0.374023
0.3262 0.3262 -0.3261963 -0.9999866 0.003665022 -0.003664912 0.500977 0.374023
0.32868 1.00038 -0.328676 0.5773445 0.5773619 -0.5773445 0.624023 0.250977
1.0004 0.3286799 -0.3286762 0.5773445 0.5773619 -0.5773445 0.624023 0.372642
0.32868 0.3286802 -1.000396 0.5773445 0.5773619 -0.5773445 0.502358 0.250977
1.0004 0.3286799 -0.3286762 0.003664876 -0.9999866 -0.003665232 0.747642 0.374023
0.3262 0.3262 -0.3261963 0.003664876 -0.9999866 -0.003665232 0.625977 0.374023
0.32868 0.3286802 -1.000396 0.003664876 -0.9999866 -0.003665232 0.625977 0.252358
0.32868 1.00038 -0.328676 0.003664914 0.003664703 0.9999866 0.627358 0.250977
0.3262 0.3262 -0.3261963 0.003664914 0.003664703 0.9999866 0.749023 0.250977
1.0004 0.3286799 -0.3286762 0.003664914 0.003664703 0.9999866 0.749023 0.372642
-0.3287 1.00038 -0.328676 0.9999866 0.003665022 -0.003664912 0.872642 0.374023
-0.32622 0.3262 -0.3261963 0.9999866 0.003665022 -0.003664912 0.750977 0.374023
-0.3287 0.3286802 -1.000396 0.9999866 0.003665022 -0.003664912 0.750977 0.252358
-0.3287 1.00038 -0.328676 -0.5773559 0.5773561 -0.5773388 0.874023 0.250977
-0.3287 0.3286802 -1.000396 -0.5773559 0.5773561 -0.5773388 0.874023 0.372642
-1.0004 0.3286799 -0.3286762 -0.5773559 0.5773561 -0.5773388 0.752358 0.250977
-1.0004 0.3286799 -0.3286762 -0.003664985 -0.9999866 -0.003665232 0.875977 0.252358
-0.3287 0.3286802 -1.000396 -0.003664985 -0.9999866 -0.003665232 0.997642 0.374023
-0.32622 0.3262 -0.3261963 -0.003664985 -0.9999866 -0.003665232 0.875977 0.374023
-0.3287 1.00038 -0.328676 -0.003665022 0.003664703 0.9999866 0.999023 0.372642
-1.0004 0.3286799 -0.3286762 -0.003665022 0.003664703 0.9999866 0.877358 0.250977
-0.32622 0.3262 -0.3261963 -0.003665022 0.003664703 0.9999866 0.999023 0.250977
0.32868 1.00038 0.328704 -0.9999866 0.00366502 0.003665022 0.122642 0.249023
0.3262 0.3262 0.3262238 -0.9999866 0.00366502 0.003665022 0.000977 0.249023
0.32868 0.3286798 1.000404 -0.9999866 0.00366502 0.003665022 0.000977 0.127358
0.32868 1.00038 0.328704 0.5773388 0.5773559 0.5773562 0.002358 0.125977
0.32868 0.3286798 1.000404 0.5773388 0.5773559 0.5773562 0.124023 0.125977
1.0004 0.3286799 0.3287038 0.5773388 0.5773559 0.5773562 0.124023 0.247642
1.0004 0.3286799 0.3287038 0.003664878 -0.9999866 0.003664703 0.125977 0.127358
0.32868 0.3286798 1.000404 0.003664878 -0.9999866 0.003664703 0.247642 0.249023
0.3262 0.3262 0.3262238 0.003664878 -0.9999866 0.003664703 0.125977 0.249023
0.32868 1.00038 0.328704 0.003664911 0.003665304 -0.9999866 0.249023 0.247642
1.0004 0.3286799 0.3287038 0.003664911 0.003665304 -0.9999866 0.127358 0.125977
0.3262 0.3262 0.3262238 0.003664911 0.003665304 -0.9999866 0.249023 0.125977
-0.3287 1.00038 0.328704 0.9999866 0.00366502 0.003665022 0.250977 0.127358
-0.3287 0.3286798 1.000404 0.9999866 0.00366502 0.003665022 0.372642 0.249023
-0.32622 0.3262 0.3262238 0.9999866 0.00366502 0.003665022 0.250977 0.249023
-0.3287 1.00038 0.328704 -0.5773503 0.5773501 0.5773504 0.374023 0.247642
-1.0004 0.3286799 0.3287038 -0.5773503 0.5773501 0.5773504 0.252358 0.125977
-0.3287 0.3286798 1.000404 -0.5773503 0.5773501 0.5773504 0.374023 0.125977
-1.0004 0.3286799 0.3287038 -0.003664986 -0.9999866 0.003664703 0.497642 0.249023
-0.32622 0.3262 0.3262238 -0.003664986 -0.9999866 0.003664703 0.375977 0.249023
-0.3287 0.3286798 1.000404 -0.003664986 -0.9999866 0.003664703 0.375977 0.127358
-0.3287 1.00038 0.328704 -0.00366502 0.003665304 -0.9999866 0.377358 0.125977
-0.32622 0.3262 0.3262238 -0.00366502 0.003665304 -0.9999866 0.499023 0.125977
-1.0004 0.3286799 0.3287038 -0.00366502 0.003665304 -0.9999866 0.499023 0.247642
-0.32896 0.99084 -0.328936 -0.4472136 0.8944272 0 0.124023 0.997642
0.33294 0.99084 0.332964 0 1 0 0.002358 0.875977
-0.32896 0.32894 -0.3289362 0 -1 0 0.249023 0.997642
0.33294 0.32894 0.3329638 0.7071068 -0.7071068 0 0.127358 0.875977
-0.32896 0.99084 -0.328936 0 2.881627e-07 -1 0.374023 0.997642
0.33294 0.32894 -0.3289362 0 2.881627e-07 -1 0.252358 0.875977
0.33294 0.99084 -0.328936 0.8944272 0.4472136 0 0.497642 0.999023
0.33294 0.32894 0.3329638 0.7071068 -0.7071068 0 0.375977 0.877358
0.33294 0.99084 -0.328936 0.8944272 0.4472136 0 0.499023 0.997642
0.33294 0.32894 0.3329638 0.7071068 -0.7071068 0 0.377358 0.875977
0.33294 0.99084 0.332964 0 -3.24183e-07 1 0.624023 0.997642
-0.32896 0.32894 0.3329638 0 -3.24183e-07 1 0.502358 0.875977
-0.32896 0.99084 -0.328936 -0.4472136 0.8944272 0 0.625977 0.999023
-0.32896 0.99084 0.332964 -1 0 0 0.749023 0.997642
-0.32896 0.32894 -0.3289362 -1 0 0 0.627358 0.875977
-0.32896 0.32894 0.3329638 -0.7071068 -0.7071068 0 0.749023 0.875977
-0.32896 -0.3329599 -0.3309362 -0.4472136 0.8944272 2.577405e-07 0.874023 0.872642
0.33294 -0.33296 0.3309638 0 1 2.881627e-07 0.752358 0.750977
-0.32896 -0.9948601 -0.3309364 0 -1 0 0.999023 0.872642
0.33294 -0.9948601 0.3309636 0.7071068 -0.7071068 0 0.877358 0.750977
-0.32896 -0.3329599 -0.3309362 0 2.881626e-07 -1 0.124023 0.747642
0.33294 -0.9948601 -0.3309364 0 2.881626e-07 -1 0.002358 0.625977
0.33294 -0.3329599 -0.3309362 0.8944272 0.4472136 1.288703e-07 0.247642 0.749023
0.33294 -0.9948601 0.3309636 0.7071068 -0.7071068 0 0.125977 0.627358
0.33294 -0.3329599 -0.3309362 0.8944272 0.4472136 1.288703e-07 0.249023 0.747642
0.33294 -0.9948601 0.3309636 0.7071068 -0.7071068 0 0.127358 0.625977
0.33294 -0.33296 0.3309638 0 -2.881626e-07 1 0.374023 0.747642
-0.32896 -0.9948601 0.3309636 0 -2.881626e-07 1 0.252358 0.625977
-0.32896 -0.3329599 -0.3309362 -0.4472136 0.8944272 2.577405e-07 0.375977 0.749023
-0.32896 -0.33296 0.3309638 -1 0 0 0.499023 0.747642
-0.32896 -0.9948601 -0.3309364 -1 0 0 0.377358 0.625977
-0.32896 -0.9948601 0.3309636 -0.7071068 -0.7071068 0 0.499023 0.625977
0.33694 0.33094 -0.3229362 -0.4472136 0.8944272 0 0.624023 0.747642
0.99884 0.33094 0.3389638 0 1 0 0.502358 0.625977
0.33694 -0.3309601 -0.3229362 0 -1 -2.881627e-07 0.749023 0.747642
0.99884 -0.3309603 0.3389638 0.7071068 -0.7071068 -2.037618e-07 0.627358 0.625977
0.33694 0.33094 -0.3229362 0 0 -1 0.874023 0.747642
0.99884 -0.3309601 -0.3229362 0 0 -1 0.752358 0.625977
0.99884 0.33094 -0.3229362 0.8944272 0.4472136 0 0.997642 0.749023
0.99884 -0.3309603 0.3389638 0.7071068 -0.7071068 -2.037618e-07 0.875977 0.627358
0.99884 0.33094 -0.3229362 0.8944272 0.4472136 0 0.999023 0.747642
0.99884 -0.3309603 0.3389638 0.7071068 -0.7071068 -2.037618e-07 0.877358 0.625977
0.99884 0.33094 0.3389638 0 0 1 0.124023 0.622642
0.33694 -0.3309603 0.3389638 0 0 1 0.002358 0.500977
0.33694 0.33094 -0.3229362 -0.4472136 0.8944272 0 0.125977 0.624023
0.33694 0.33094 0.3389638 -1 0 0 0.249023 0.622642
0.33694 -0.3309601 -0.3229362 -1 0 0 0.127358 0.500977
0.33694 -0.3309603 0.3389638 -0.7071068 -0.7071068 -2.037618e-07 0.249023 0.500977
-0.98884 0.32694 -0.3229362 -0.4472136 0.8944272 0 0.374023 0.622642
-0.32696 0.32694 0.3389638 0 1 0 0.252358 0.500977
-0.98884 -0.3349601 -0.3229362 0 -1 -2.881627e-07 0.499023 0.622642
-0.32696 -0.3349603 0.3389638 0.7071068 -0.7071068 -2.037618e-07 0.377358 0.500977
-0.98884 0.32694 -0.3229362 0 0 -1 0.624023 0.622642
-0.32696 -0.3349601 -0.3229362 0 0 -1 0.502358 0.500977
-0.32696 0.32694 -0.3229362 0.8944272 0.4472136 0 0.747642 0.624023
-0.32696 -0.3349603 0.3389638 0.7071068 -0.7071068 -2.037618e-07 0.625977 0.502358
-0.32696 0.32694 -0.3229362 0.8944272 0.4472136 0 0.749023 0.622642
-0.32696 -0.3349603 0.3389638 0.7071068 -0.7071068 -2.037618e-07 0.627358 0.500977
-0.32696 0.32694 0.3389638 0 0 1 0.874023 0.622642
-0.98884 -0.3349603 0.3389638 0 0 1 0.752358 0.500977
-0.98884 0.32694 -0.3229362 -0.4472136 0.8944272 0 0.875977 0.624023
-0.98884 0.32694 0.3389638 -1 0 0 0.999023 0.622642
-0.98884 -0.3349601 -0.3229362 -1 0 0 0.877358 0.500977
-0.98884 -0.3349603 0.3389638 -0.7071068 -0.7071068 -2.037618e-07 0.999023 0.500977
-0.32296 0.3329402 -0.9868361 -0.4472136 0.8944272 2.577407e-07 0.124023 0.497642
0.33894 0.33294 -0.3249362 0 1 2.881628e-07 0.002358 0.375977
-0.32296 -0.3289599 -0.9868363 0 -1 -2.881627e-07 0.249023 0.497642
0.33894 -0.32896 -0.3249362 0.7071068 -0.7071068 -2.037618e-07 0.127358 0.375977
-0.32296 0.3329402 -0.9868361 0 2.881627e-07 -1 0.374023 0.497642
0.33894 -0.3289599 -0.9868363 0 2.881627e-07 -1 0.252358 0.375977
0.33894 0.3329402 -0.9868361 0.8944272 0.4472136 1.288703e-07 0.497642 0.499023
0.33894 -0.32896 -0.3249362 0.7071068 -0.7071068 -2.037618e-07 0.375977 0.377358
0.33894 0.3329402 -0.9868361 0.8944272 0.4472136 1.288703e-07 0.499023 0.497642
0.33894 -0.32896 -0.3249362 0.7071068 -0.7071068 -2.037618e-07 0.377358 0.375977
0.33894 0.33294 -0.3249362 0 0 1 0.624023 0.497642
-0.32296 -0.32896 -0.3249362 0 0 1 0.502358 0.375977
-0.32296 0.3329402 -0.9868361 -0.4472136 0.8944272 2.577407e-07 0.625977 0.499023
-0.32296 0.33294 -0.3249362 -1 0 0 0.749023 0.497642
-0.32296 -0.3289599 -0.9868363 -1 0 0 0.627358 0.375977
-0.32296 -0.32896 -0.3249362 -0.7071068 -0.7071068 -2.037618e-07 0.749023 0.375977
-0.33096 0.33094 0.3309638 -0.4472136 0.8944272 2.577483e-07 0.874023 0.497642
0.33094 0.3309398 0.992844 0 1 2.881713e-07 0.752358 0.375977
-0.33096 -0.3309603 0.3309638 0 -1 0 0.999023 0.497642
0.33094 -0.3309603 0.9928438 0.7071068 -0.7071068 0 0.877358 0.375977
-0.33096 0.33094 0.3309638 0 0 -1 0.124023 0.372642
0.33094 -0.3309603 0.3309638 0 0 -1 0.002358 0.250977
0.33094 0.33094 0.3309638 0.8944272 0.4472136 1.288741e-07 0.247642 0.374023
0.33094 -0.3309603 0.9928438 0.7071068 -0.7071068 0 0.125977 0.252358
0.33094 0.33094 0.3309638 0.8944272 0.4472136 1.288741e-07 0.249023 0.372642
0.33094 -0.3309603 0.9928438 0.7071068 -0.7071068 0 0.127358 0.250977
0.33094 0.3309398 0.992844 0 -2.881626e-07 1 0.374023 0.372642
-0.33096 -0.3309603 0.9928438 0 -2.881626e-07 1 0.252358 0.250977
-0.33096 0.33094 0.3309638 -0.4472136 0.8944272 2.577483e-07 0.375977 0.374023
-0.33096 0.3309398 0.992844 -1 0 0 0.499023 0.372642
-0.33096 -0.3309603 0.3309638 -1 0 0 0.377358 0.250977
-0.33096 -0.3309603 0.9928438 -0.7071068 -0.7071068 0 0.499023 0.250977
3 0 1 2 
3 216 217 3 
3 4 5 6 
3 218 219 7 
3 8 9 10 
3 220 221 11 
3 222 12 223 
3 224 225 13 
3 14 15 16 
3 226 227 17 
3 18 228 19 
3 229 230 231 
3 20 21 22 
3 23 24 25 
3 26 27 28 
3 29 30 31 
3 32 33 34 
3 35 36 37 
3 38 39 40 
3 41 42 43 
3 44 45 46 
3 47 48 49 
3 50 51 52 
3 53 54 55 
3 56 57 58 
3 59 60 61 
3 62 63 64 
3 65 66 67 
3 68 69 70 
3 232 233 71 
3 72 73 74 
3 234 235 75 
3 76 77 78 
3 236 237 79 
3 238 80 239 
3 240 241 81 
3 82 83 84 
3 242 243 85 
3 86 244 87 
3 245 246 247 
3 88 89 90 
3 248 249 91 
3 92 93 94 
3 250 251 95 
3 96 97 98 
3 252 253 99 
3 254 100 255 
3 256 257 101 
3 102 103 104 
3 258 259 105 
3 106 260 107 
3 261 262 263 
3 108 109 110 
3 264 265 111 
3 112 113 114 
3 266 267 115 
3 116 117 118 
3 268 269 119 
3 270 120 271 
3 272 273 121 
3 122 123 124 
3 274 275 125 
3 126 276 127 
3 277 278 279 
3 128 129 130 
3 280 281 131 
3 132 133 134 
3 282 283 135 
3 136 137 138 
3 284 285 139 
3 286 140 287 
3 288 289 141 
3 142 143 144 
3 290 291 145 
3 146 292 147 
3 293 294 295 
3 148 149 150 
3 296 297 151 
3 152 153 154 
3 298 299 155 
3 156 157 158 
3 300 301 159 
3 302 160 303 
3 304 305 161 
3 162 163 164 
3 306 307 165 
3 166 308 167 
3 309 310 311 
3 168 169 170 
3 171 172 173 
3 174 175 176 
3 177 178 179 
3 180 181 182 
3 183 184 185 
3 186 187 188 
3 189 190 191 
3 192 193 194 
3 195 196 197 
3 198 199 200 
3 201 202 203 
3 204 205 206 
3 207 208 209 
3 210 211 212 
3 213 214 215 
