ply
format ascii 1.0
comment VCGLIB generated
element vertex 540
property float x
property float y
property float z
property float nx
property float ny
property float nz
property float texture_u
property float texture_v
element face 180
property list uchar int vertex_indices
end_header
-0.3896944 0.3896945 -0.3896946 -0.4082485 0.8164966 -0.4082481 0.500977 0.377358
0 0.3896945 -0.3896946 0 1 5.739502e-07 0.561119 0.437500
0 0.3896947 -0.62653 -1.999611e-08 0.585758 -0.8104861 0.500977 0.497642
-0.3896944 0.3896947 -1 -0.5065318 0.5065323 -0.6977468 0.000977 0.877358
0.3896944 0.3896945 -0.3896946 0.4082485 0.8164966 -0.4082481 0.502358 0.499023
0.3896944 0 -0.3896946 0.7071068 0 -0.7071068 0.562500 0.438881
0.3896944 0 -0.6265302 0.3597717 -0.1689742 -0.9176122 0.622642 0.499023
0.3896944 0.3896947 -1 0.5065317 0.5065324 -0.6977468 0.124023 0.997642
0.3896944 -0.3896944 -0.3896946 0.4082483 -0.8164966 -0.4082484 0.624023 0.497642
0 -0.3896944 -0.3896946 0 -1 -2.406891e-07 0.563881 0.437500
0 -0.3896944 -0.6265302 -0.1689746 -0.3597717 -0.9176121 0.624023 0.377358
0.3896944 -0.3896941 -1 0.5065318 -0.5065317 -0.6977472 0.125977 0.877358
-0.3896944 -0.3896944 -0.3896946 -0.4082484 -0.8164966 -0.4082484 0.622642 0.375977
-0.3896944 0 -0.3896946 -0.7071068 0 -0.7071068 0.562500 0.436119
-0.3896944 0 -0.6265302 -0.1703556 3.54554e-07 -0.9853827 0.502358 0.375977
-0.3896944 -0.3896941 -1 -0.5065318 -0.5065317 -0.6977472 0.249023 0.997642
0 -0.2338372 -0.4849464 0.1667715 0.5003144 -0.849631 0.125977 0.063477
0.2338372 0 -0.4849464 -0.3958794 0.1319599 -0.9087718 0.185142 0.063477
-0.2338372 0 -0.4849464 0.3266994 1.221434e-07 -0.9451283 0.125977 0.061523
0 0.2338372 -0.4849464 -2.897024e-08 -0.5424108 -0.8401134 0.188477 0.064858
-1 0.3896945 -0.3896946 -0.6977472 0.5065317 -0.506532 0.872642 0.999023
-0.62653 0.3896945 0 -0.8104864 0.5857575 -1.999611e-07 0.750977 0.999023
-0.3896944 0.3896945 0 0 1 0 0.938881 0.437500
-0.3896944 0.3896945 0.3896944 -0.4082484 0.8164964 0.4082484 0.874023 0.997642
-1 0.3896945 0.3896944 -0.6977475 0.5065316 0.5065315 0.752358 0.875977
-0.62653 -1.958585e-07 0.3896942 -0.9176121 -0.1689747 0.3597715 0.874023 0.875977
-0.3896944 -1.958585e-07 0.3896942 -0.7071068 -1.999059e-07 0.7071068 0.937500 0.436119
-0.3896944 -0.3896946 0.3896942 -0.4082483 -0.8164967 0.4082482 0.875977 0.877358
-1 -0.3896946 0.3896942 -0.6977475 -0.5065318 0.5065315 0.997642 0.999023
-0.62653 -0.3896944 -2.053725e-07 -0.9176121 -0.3597717 -0.1689748 0.875977 0.999023
-0.3896944 -0.3896944 -2.053725e-07 0 -1 -2.512976e-07 0.061119 0.312500
-1 -0.3896944 -0.3896946 -0.6977472 -0.5065317 -0.5065317 0.877358 0.875977
-0.62653 0 -0.3896946 -0.9853826 -9.669657e-08 -0.1703557 0.999023 0.875977
-0.4849462 0 0.233837 -0.9087718 0.1319599 -0.3958795 0.188881 0.312500
-0.4849462 -0.2338372 -2.053725e-07 -0.8496311 0.5003143 0.1667715 0.249023 0.061523
-0.4849462 0 -0.2338374 -0.9451283 -5.234719e-08 0.3266996 0.249023 0.063477
-0.4849462 0.2338372 -2.053725e-07 -0.8401131 -0.5424113 -8.691076e-08 0.311119 0.312500
0.3896944 0.3896945 0.3896944 0.4082484 0.8164965 0.4082485 0.500977 0.752358
1 0.3896945 0.3896944 0.6977474 0.5065317 0.5065315 0.622642 0.874023
0.62653 0.3896945 0 0.8104863 0.5857576 -1.99961e-07 0.500977 0.874023
0.3896944 0.3896945 0 0.7071068 0.7071068 0 0.436119 0.312500
1 0.3896945 -0.3896946 0.6977472 0.5065317 -0.506532 0.502358 0.750977
0.62653 0 -0.3896946 0.9176121 -0.1689747 -0.3597717 0.624023 0.750977
1 -0.3896944 -0.3896946 0.6977472 -0.5065317 -0.5065317 0.747642 0.874023
0.62653 -0.3896944 -2.053725e-07 0.9176121 -0.3597717 0.1689744 0.625977 0.874023
0.3896944 -0.3896944 -2.053725e-07 0.7071068 -0.7071068 -1.776942e-07 0.438881 0.312500
0.3896944 -0.3896946 0.3896942 0.4082483 -0.8164967 0.4082482 0.749023 0.872642
1 -0.3896946 0.3896942 0.6977474 -0.5065317 0.5065315 0.627358 0.750977
0.62653 -1.958585e-07 0.3896942 0.9853827 -1.128126e-07 0.1703555 0.749023 0.750977
0.3896944 -1.958585e-07 0.3896942 0.7071068 -1.999059e-07 0.7071068 0.437500 0.311119
0.4849462 0 -0.2338374 0.9087717 0.1319598 0.3958796 0.686119 0.312500
0.4849462 -0.2338372 -2.053725e-07 0.8496311 0.5003143 -0.1667713 0.250977 0.063477
0.4849462 0 0.233837 0.9451283 1.744906e-08 -0.3266996 0.250977 0.061523
0.4849462 0.2338372 -2.053725e-07 0.8401131 -0.5424113 -8.691076e-08 0.688881 0.312500
0 0.3896945 0.3896944 0 1 2.005742e-07 0.813881 0.312500
0 0.3896945 0.6265298 1.99961e-08 0.5857575 0.8104864 0.874023 0.252358
0.3896944 0.3896942 1 0.5065317 0.506532 0.6977472 0.250977 0.627358
-0.3896944 -1.958585e-07 0.6265298 -0.3597717 -0.1689745 0.9176121 0.752358 0.250977
-0.3896944 0.3896942 1 -0.5065317 0.506532 0.6977472 0.374023 0.747642
0 -0.3896946 0.3896942 0 -1 0 0.936119 0.312500
0 -0.3896946 0.6265298 0.1689746 -0.3597719 0.917612 0.875977 0.372642
-0.3896944 -0.3896946 0.9999998 -0.5065318 -0.5065318 0.6977472 0.375977 0.627358
0.3896944 -1.958585e-07 0.6265298 0.1703557 1.128127e-07 0.9853826 0.997642 0.374023
0.3896944 -0.3896946 0.9999998 0.5065318 -0.5065318 0.6977472 0.499023 0.747642
0 -0.2338374 0.484946 -0.1667715 0.5003144 0.849631 0.374023 0.061523
-0.2338372 -1.958585e-07 0.484946 0.3958795 0.1319599 0.9087718 0.314858 0.061523
0.2338372 -1.958585e-07 0.484946 -0.3266995 6.979624e-08 0.9451283 0.374023 0.063477
0 0.233837 0.484946 5.794049e-08 -0.542411 0.8401133 0.311523 0.060142
-0.3896944 -0.3896944 -0.3896946 -0.7071068 1.134619e-07 -0.7071068 0.000977 0.502358
-0.3896944 -0.9999999 -0.3896948 -0.5065315 -0.6977472 -0.506532 0.122642 0.624023
-0.3896944 -0.6265299 -2.053725e-07 -0.5857573 -0.8104865 -1.99961e-07 0.000977 0.624023
-0.3896944 -0.3896944 -2.053725e-07 -1 0 0 0.311119 0.187500
-0.3896944 -0.3896946 0.3896942 -0.7071068 -1.13462e-07 0.7071067 0.124023 0.622642
-0.3896944 -0.9999999 0.389694 -0.5065318 -0.6977473 0.5065317 0.002358 0.500977
0 -0.6265299 0.3896942 0.1689746 -0.9176121 0.3597717 0.124023 0.500977
0 -0.3896946 0.3896942 0 -1.604595e-07 1 0.312500 0.188881
0.3896944 -0.3896946 0.3896942 0.7071068 -1.13462e-07 0.7071068 0.125977 0.502358
0.3896944 -0.9999999 0.389694 0.5065318 -0.6977473 0.5065317 0.247642 0.624023
0.3896944 -0.6265299 -2.053725e-07 0.3597717 -0.9176121 -0.1689747 0.125977 0.624023
0.3896944 -0.3896944 -0.3896946 0.7071068 1.134619e-07 -0.7071068 0.249023 0.622642
0.3896944 -0.9999999 -0.3896948 0.5065315 -0.6977472 -0.506532 0.127358 0.500977
0 -0.6265298 -0.3896946 0 -0.9853826 -0.1703561 0.249023 0.500977
0 -0.3896944 -0.3896946 0 1.604594e-07 -1 0.312500 0.186119
0 -0.4849462 0.233837 -0.1319598 -0.9087718 -0.3958794 0.561119 0.187500
0.2338372 -0.4849462 -2.053725e-07 -0.5003142 -0.8496311 0.1667713 0.375977 0.063477
0 -0.4849462 -0.2338374 0 -0.9451283 0.3266993 0.375977 0.061523
-0.2338372 -0.4849462 -2.053725e-07 0.5424111 -0.8401133 -1.15881e-07 0.563881 0.187500
0.3896944 0.3896945 -0.3896946 0.7071068 4.058438e-07 -0.7071068 0.750977 0.502358
0.3896944 1 -0.3896944 0.5065314 0.6977476 -0.5065315 0.872642 0.624023
0.3896944 0.6265301 0 0.5857576 0.8104864 0 0.750977 0.624023
0.3896944 0.3896945 0.3896944 0.7071068 0 0.7071068 0.874023 0.622642
0.3896944 1 0.3896944 0.5065318 0.6977472 0.5065318 0.752358 0.500977
0 0.6265301 0.3896944 -0.1689746 0.917612 0.3597718 0.874023 0.500977
0 0.3896945 0.3896944 0 0 1 0.687500 0.186119
-0.3896944 0.3896945 0.3896944 -0.7071068 0 0.7071068 0.875977 0.502358
-0.3896944 1 0.3896944 -0.5065318 0.6977472 0.5065318 0.997642 0.624023
-0.3896944 0.6265301 0 -0.3597718 0.917612 -0.1689746 0.875977 0.624023
-0.3896944 0.3896945 0 -1 0 0 0.811119 0.187500
-0.3896944 0.3896945 -0.3896946 -0.7071068 4.058438e-07 -0.7071068 0.999023 0.622642
-0.3896944 1 -0.3896944 -0.5065314 0.6977476 -0.5065315 0.877358 0.500977
0 0.6265301 -0.3896944 0 0.9853827 -0.1703557 0.999023 0.500977
0 0.3896945 -0.3896946 0 5.739498e-07 -1 0.812500 0.188881
0 0.4849462 0.2338372 0.1319599 0.9087717 -0.3958796 0.938881 0.187500
-0.2338372 0.4849462 0 0.5003144 0.849631 0.1667715 0.499023 0.061523
0 0.4849462 -0.2338372 0 0.9451283 0.3266996 0.499023 0.063477
0.2338372 0.4849462 0 -0.5424112 0.8401131 0 0.061119 0.062500
-0.3896944 0.3896945 -0.3896946 -0.4082485 0.8164966 -0.4082481 0.122642 0.999023
0 0.3896947 -0.62653 -1.999611e-08 0.585758 -0.8104861 0.000977 0.999023
0.3896944 0.3896945 -0.3896946 0.4082485 0.8164966 -0.4082481 0.002358 0.875977
0.3896944 0 -0.6265302 0.3597717 -0.1689742 -0.9176122 0.124023 0.875977
0.3896944 -0.3896944 -0.3896946 0.4082483 -0.8164966 -0.4082484 0.247642 0.999023
0 -0.3896944 -0.6265302 -0.1689746 -0.3597717 -0.9176121 0.125977 0.999023
-0.3896944 -0.3896944 -0.3896946 -0.4082484 -0.8164966 -0.4082484 0.127358 0.875977
-0.3896944 0 -0.6265302 -0.1703556 3.54554e-07 -0.9853827 0.249023 0.875977
-0.3896944 0.3896945 -0.3896946 -0.4082485 0.8164966 -0.4082481 0.250977 0.877358
-0.3896944 0.3896947 -1 -0.5065318 0.5065323 -0.6977468 0.372642 0.999023
-0.3896944 0 -0.6265302 -0.1703556 3.54554e-07 -0.9853827 0.250977 0.999023
-0.3896944 0.3896945 -0.3896946 -0.4082485 0.8164966 -0.4082481 0.625977 0.497642
-0.3896944 0 -0.6265302 -0.1703556 3.54554e-07 -0.9853827 0.625977 0.377358
-0.3896944 0 -0.3896946 -0.7071068 0 -0.7071068 0.686119 0.437500
-0.3896944 -0.3896944 -0.3896946 -0.4082484 -0.8164966 -0.4082484 0.374023 0.997642
-0.3896944 -0.3896941 -1 -0.5065318 -0.5065317 -0.6977472 0.252358 0.875977
0 -0.3896944 -0.6265302 -0.1689746 -0.3597717 -0.9176121 0.374023 0.875977
-0.3896944 -0.3896944 -0.3896946 -0.4082484 -0.8164966 -0.4082484 0.747642 0.499023
0 -0.3896944 -0.6265302 -0.1689746 -0.3597717 -0.9176121 0.627358 0.499023
0 -0.3896944 -0.3896946 0 -1 -2.406891e-07 0.687500 0.438881
0.3896944 -0.3896944 -0.3896946 0.4082483 -0.8164966 -0.4082484 0.375977 0.877358
0.3896944 -0.3896941 -1 0.5065318 -0.5065317 -0.6977472 0.497642 0.999023
0.3896944 0 -0.6265302 0.3597717 -0.1689742 -0.9176122 0.375977 0.999023
0.3896944 -0.3896944 -0.3896946 0.4082483 -0.8164966 -0.4082484 0.749023 0.377358
0.3896944 0 -0.6265302 0.3597717 -0.1689742 -0.9176122 0.749023 0.497642
0.3896944 0 -0.3896946 0.7071068 0 -0.7071068 0.688881 0.437500
0.3896944 0.3896945 -0.3896946 0.4082485 0.8164966 -0.4082481 0.499023 0.997642
0.3896944 0.3896947 -1 0.5065317 0.5065324 -0.6977468 0.377358 0.875977
0 0.3896947 -0.62653 -1.999611e-08 0.585758 -0.8104861 0.499023 0.875977
0.3896944 0.3896945 -0.3896946 0.4082485 0.8164966 -0.4082481 0.627358 0.375977
0 0.3896947 -0.62653 -1.999611e-08 0.585758 -0.8104861 0.747642 0.375977
0 0.3896945 -0.3896946 0 1 5.739502e-07 0.687500 0.436119
-0.3896944 0.3896947 -1 -0.5065318 0.5065323 -0.6977468 0.500977 0.999023
0 0.3896947 -0.62653 -1.999611e-08 0.585758 -0.8104861 0.500977 0.877358
-0.3896944 0 -0.6265302 -0.1703556 3.54554e-07 -0.9853827 0.622642 0.999023
0 -0.3896944 -0.6265302 -0.1689746 -0.3597717 -0.9176121 0.125977 0.122642
0 -0.3896944 -0.6265302 -0.1689746 -0.3597717 -0.9176121 0.750977 0.377358
0.2338372 0 -0.4849464 -0.3958794 0.1319599 -0.9087718 0.811119 0.437500
0.3896944 0 -0.6265302 0.3597717 -0.1689742 -0.9176122 0.750977 0.497642
-0.3896944 0 -0.6265302 -0.1703556 3.54554e-07 -0.9853827 0.185142 0.061523
0 -0.2338372 -0.4849464 0.1667715 0.5003144 -0.849631 0.125977 0.002358
-0.3896944 0 -0.6265302 -0.1703556 3.54554e-07 -0.9853827 0.752358 0.499023
0 -0.2338372 -0.4849464 0.1667715 0.5003144 -0.849631 0.812500 0.438881
0 -0.3896944 -0.6265302 -0.1689746 -0.3597717 -0.9176121 0.872642 0.499023
0.3896944 0 -0.6265302 0.3597717 -0.1689742 -0.9176122 0.247642 0.124023
0.2338372 0 -0.4849464 -0.3958794 0.1319599 -0.9087718 0.188477 0.124023
0.3896944 0 -0.6265302 0.3597717 -0.1689742 -0.9176122 0.874023 0.497642
0 0.2338372 -0.4849464 -2.897024e-08 -0.5424108 -0.8401134 0.813881 0.437500
0 0.3896947 -0.62653 -1.999611e-08 0.585758 -0.8104861 0.874023 0.377358
0.2338372 0 -0.4849464 -0.3958794 0.1319599 -0.9087718 0.872642 0.375977
0 -0.2338372 -0.4849464 0.1667715 0.5003144 -0.849631 0.812500 0.436119
-0.2338372 0 -0.4849464 0.3266994 1.221434e-07 -0.9451283 0.752358 0.375977
0.2338372 0 -0.4849464 -0.3958794 0.1319599 -0.9087718 0.875977 0.497642
-0.2338372 0 -0.4849464 0.3266994 1.221434e-07 -0.9451283 0.875977 0.377358
0 0.2338372 -0.4849464 -2.897024e-08 -0.5424108 -0.8401134 0.936119 0.437500
0 0.2338372 -0.4849464 -2.897024e-08 -0.5424108 -0.8401134 0.186523 0.064858
-0.2338372 0 -0.4849464 0.3266994 1.221434e-07 -0.9451283 0.186523 0.124023
-0.3896944 0 -0.6265302 -0.1703556 3.54554e-07 -0.9853827 0.127358 0.124023
0 0.2338372 -0.4849464 -2.897024e-08 -0.5424108 -0.8401134 0.937500 0.438881
-0.3896944 0 -0.6265302 -0.1703556 3.54554e-07 -0.9853827 0.997642 0.499023
0 0.3896947 -0.62653 -1.999611e-08 0.585758 -0.8104861 0.877358 0.499023
0 -0.3896944 -0.6265302 -0.1689746 -0.3597717 -0.9176121 0.502358 0.875977
-0.3896944 -0.3896941 -1 -0.5065318 -0.5065317 -0.6977472 0.624023 0.875977
-0.3896944 0 -0.6265302 -0.1703556 3.54554e-07 -0.9853827 0.624023 0.997642
0.3896944 0 -0.6265302 0.3597717 -0.1689742 -0.9176122 0.747642 0.999023
0.3896944 -0.3896941 -1 0.5065318 -0.5065317 -0.6977472 0.625977 0.999023
0 -0.3896944 -0.6265302 -0.1689746 -0.3597717 -0.9176121 0.625977 0.877358
0 0.3896947 -0.62653 -1.999611e-08 0.585758 -0.8104861 0.627358 0.875977
0.3896944 0.3896947 -1 0.5065317 0.5065324 -0.6977468 0.749023 0.875977
0.3896944 0 -0.6265302 0.3597717 -0.1689742 -0.9176122 0.749023 0.997642
-0.3896944 0.3896945 -0.3896946 -0.4082485 0.8164966 -0.4082481 0.750977 0.877358
-0.3896944 0.3896945 -0.3896946 -0.4082485 0.8164966 -0.4082481 0.999023 0.377358
-0.62653 0.3896945 0 -0.8104864 0.5857575 -1.999611e-07 0.999023 0.497642
-0.3896944 0.3896945 0.3896944 -0.4082484 0.8164964 0.4082484 0.877358 0.375977
-0.62653 -1.958585e-07 0.3896942 -0.9176121 -0.1689747 0.3597715 0.997642 0.375977
-0.3896944 -0.3896946 0.3896942 -0.4082483 -0.8164967 0.4082482 0.000977 0.372642
-0.62653 -0.3896944 -2.053725e-07 -0.9176121 -0.3597717 -0.1689748 0.000977 0.252358
-0.3896944 -0.3896944 -0.3896946 -0.4082484 -0.8164966 -0.4082484 0.999023 0.997642
-0.3896944 -0.3896944 -0.3896946 -0.4082484 -0.8164966 -0.4082484 0.122642 0.374023
-0.62653 0 -0.3896946 -0.9853826 -9.669657e-08 -0.1703557 0.002358 0.374023
-0.3896944 0 -0.3896946 -0.7071068 0 -0.7071068 0.062500 0.313881
-0.3896944 0.3896945 -0.3896946 -0.4082485 0.8164966 -0.4082481 0.124023 0.372642
-0.3896944 0 -0.3896946 -0.7071068 0 -0.7071068 0.063881 0.312500
-0.62653 0 -0.3896946 -0.9853826 -9.669657e-08 -0.1703557 0.124023 0.252358
-0.3896944 0.3896945 -0.3896946 -0.4082485 0.8164966 -0.4082481 0.122642 0.874023
-0.62653 0 -0.3896946 -0.9853826 -9.669657e-08 -0.1703557 0.000977 0.874023
-1 0.3896945 -0.3896946 -0.6977472 0.5065317 -0.506532 0.000977 0.752358
-0.3896944 -0.3896944 -0.3896946 -0.4082484 -0.8164966 -0.4082484 0.122642 0.250977
-0.3896944 -0.3896944 -2.053725e-07 0 -1 -2.512976e-07 0.062500 0.311119
-0.62653 -0.3896944 -2.053725e-07 -0.9176121 -0.3597717 -0.1689748 0.002358 0.250977
-0.3896944 -0.3896944 -0.3896946 -0.4082484 -0.8164966 -0.4082484 0.002358 0.750977
-0.62653 -0.3896944 -2.053725e-07 -0.9176121 -0.3597717 -0.1689748 0.124023 0.750977
-1 -0.3896944 -0.3896946 -0.6977472 -0.5065317 -0.5065317 0.124023 0.872642
-0.3896944 -0.3896946 0.3896942 -0.4082483 -0.8164967 0.4082482 0.125977 0.252358
-0.3896944 -1.958585e-07 0.3896942 -0.7071068 -1.999059e-07 0.7071068 0.186119 0.312500
-0.62653 -1.958585e-07 0.3896942 -0.9176121 -0.1689747 0.3597715 0.125977 0.372642
-0.3896944 -0.3896946 0.3896942 -0.4082483 -0.8164967 0.4082482 0.247642 0.874023
-0.62653 -1.958585e-07 0.3896942 -0.9176121 -0.1689747 0.3597715 0.125977 0.874023
-1 -0.3896946 0.3896942 -0.6977475 -0.5065318 0.5065315 0.125977 0.752358
-0.3896944 0.3896945 0.3896944 -0.4082484 0.8164964 0.4082484 0.127358 0.374023
-0.3896944 0.3896945 0 0 1 0 0.187500 0.313881
-0.62653 0.3896945 0 -0.8104864 0.5857575 -1.999611e-07 0.247642 0.374023
-0.3896944 0.3896945 0.3896944 -0.4082484 0.8164964 0.4082484 0.127358 0.750977
-0.62653 0.3896945 0 -0.8104864 0.5857575 -1.999611e-07 0.249023 0.750977
-1 0.3896945 0.3896944 -0.6977475 0.5065316 0.5065315 0.249023 0.872642
-1 0.3896945 -0.3896946 -0.6977472 0.5065317 -0.506532 0.250977 0.874023
-0.62653 0 -0.3896946 -0.9853826 -9.669657e-08 -0.1703557 0.250977 0.752358
-0.62653 0.3896945 0 -0.8104864 0.5857575 -1.999611e-07 0.372642 0.874023
-0.62653 -0.3896944 -2.053725e-07 -0.9176121 -0.3597717 -0.1689748 0.249023 0.252358
-0.62653 -1.958585e-07 0.3896942 -0.9176121 -0.1689747 0.3597715 0.249023 0.372642
-0.62653 -0.3896944 -2.053725e-07 -0.9176121 -0.3597717 -0.1689748 0.189858 0.061523
-0.4849462 0 0.233837 -0.9087718 0.1319599 -0.3958795 0.249023 0.002358
-0.62653 0 -0.3896946 -0.9853826 -9.669657e-08 -0.1703557 0.127358 0.250977
-0.62653 -0.3896944 -2.053725e-07 -0.9176121 -0.3597717 -0.1689748 0.247642 0.250977
-0.4849462 -0.2338372 -2.053725e-07 -0.8496311 0.5003143 0.1667715 0.187500 0.311119
-0.62653 0 -0.3896946 -0.9853826 -9.669657e-08 -0.1703557 0.249023 0.122642
-0.4849462 -0.2338372 -2.053725e-07 -0.8496311 0.5003143 0.1667715 0.189858 0.063477
-0.62653 -1.958585e-07 0.3896942 -0.9176121 -0.1689747 0.3597715 0.250977 0.372642
-0.62653 0.3896945 0 -0.8104864 0.5857575 -1.999611e-07 0.250977 0.252358
-0.62653 -1.958585e-07 0.3896942 -0.9176121 -0.1689747 0.3597715 0.186523 0.060142
-0.4849462 0.2338372 -2.053725e-07 -0.8401131 -0.5424113 -8.691076e-08 0.127358 0.000977
-0.4849462 0 0.233837 -0.9087718 0.1319599 -0.3958795 0.186523 0.000977
-0.4849462 0 0.233837 -0.9087718 0.1319599 -0.3958795 0.252358 0.374023
-0.4849462 0.2338372 -2.053725e-07 -0.8401131 -0.5424113 -8.691076e-08 0.312500 0.313881
-0.4849462 0 -0.2338374 -0.9451283 -5.234719e-08 0.3266996 0.372642 0.374023
-0.4849462 0 0.233837 -0.9087718 0.1319599 -0.3958795 0.374023 0.252358
-0.4849462 0 -0.2338374 -0.9451283 -5.234719e-08 0.3266996 0.374023 0.372642
-0.4849462 -0.2338372 -2.053725e-07 -0.8496311 0.5003143 0.1667715 0.313881 0.312500
-0.4849462 0.2338372 -2.053725e-07 -0.8401131 -0.5424113 -8.691076e-08 0.312500 0.311119
-0.62653 0.3896945 0 -0.8104864 0.5857575 -1.999611e-07 0.252358 0.250977
-0.62653 0 -0.3896946 -0.9853826 -9.669657e-08 -0.1703557 0.372642 0.250977
-0.4849462 0.2338372 -2.053725e-07 -0.8401131 -0.5424113 -8.691076e-08 0.247642 0.000977
-0.62653 0 -0.3896946 -0.9853826 -9.669657e-08 -0.1703557 0.188477 0.060142
-0.4849462 0 -0.2338374 -0.9451283 -5.234719e-08 0.3266996 0.188477 0.000977
-0.62653 -0.3896944 -2.053725e-07 -0.9176121 -0.3597717 -0.1689748 0.374023 0.872642
-0.62653 0 -0.3896946 -0.9853826 -9.669657e-08 -0.1703557 0.252358 0.750977
-1 -0.3896944 -0.3896946 -0.6977472 -0.5065317 -0.5065317 0.374023 0.750977
-0.62653 -1.958585e-07 0.3896942 -0.9176121 -0.1689747 0.3597715 0.375977 0.752358
-0.62653 -0.3896944 -2.053725e-07 -0.9176121 -0.3597717 -0.1689748 0.497642 0.874023
-1 -0.3896946 0.3896942 -0.6977475 -0.5065318 0.5065315 0.375977 0.874023
-0.62653 0.3896945 0 -0.8104864 0.5857575 -1.999611e-07 0.499023 0.872642
-0.62653 -1.958585e-07 0.3896942 -0.9176121 -0.1689747 0.3597715 0.377358 0.750977
-1 0.3896945 0.3896944 -0.6977475 0.5065316 0.5065315 0.499023 0.750977
0.3896944 0.3896945 0.3896944 0.4082484 0.8164965 0.4082485 0.375977 0.372642
0.62653 0.3896945 0 0.8104863 0.5857576 -1.99961e-07 0.375977 0.252358
0.3896944 0.3896945 -0.3896946 0.4082485 0.8164966 -0.4082481 0.624023 0.872642
0.3896944 0.3896945 -0.3896946 0.4082485 0.8164966 -0.4082481 0.497642 0.374023
0.62653 0 -0.3896946 0.9176121 -0.1689747 -0.3597717 0.377358 0.374023
0.3896944 0 -0.3896946 0.7071068 0 -0.7071068 0.437500 0.313881
0.3896944 -0.3896944 -0.3896946 0.4082483 -0.8164966 -0.4082484 0.625977 0.752358
0.3896944 -0.3896944 -0.3896946 0.4082483 -0.8164966 -0.4082484 0.499023 0.252358
0.62653 -0.3896944 -2.053725e-07 0.9176121 -0.3597717 0.1689744 0.499023 0.372642
0.3896944 -0.3896946 0.3896942 0.4082483 -0.8164967 0.4082482 0.377358 0.250977
0.62653 -1.958585e-07 0.3896942 0.9853827 -1.128126e-07 0.1703555 0.497642 0.250977
0.3896944 0.3896945 0.3896944 0.4082484 0.8164965 0.4082485 0.500977 0.252358
0.3896944 -1.958585e-07 0.3896942 0.7071068 -1.999059e-07 0.7071068 0.561119 0.312500
0.62653 -1.958585e-07 0.3896942 0.9853827 -1.128126e-07 0.1703555 0.500977 0.372642
0.3896944 0.3896945 0.3896944 0.4082484 0.8164965 0.4082485 0.872642 0.874023
0.62653 -1.958585e-07 0.3896942 0.9853827 -1.128126e-07 0.1703555 0.750977 0.874023
1 0.3896945 0.3896944 0.6977474 0.5065317 0.5065315 0.750977 0.752358
0.3896944 -0.3896946 0.3896942 0.4082483 -0.8164967 0.4082482 0.502358 0.374023
0.3896944 -0.3896944 -2.053725e-07 0.7071068 -0.7071068 -1.776942e-07 0.562500 0.313881
0.62653 -0.3896944 -2.053725e-07 0.9176121 -0.3597717 0.1689744 0.622642 0.374023
0.3896944 -0.3896946 0.3896942 0.4082483 -0.8164967 0.4082482 0.752358 0.750977
0.62653 -0.3896944 -2.053725e-07 0.9176121 -0.3597717 0.1689744 0.874023 0.750977
1 -0.3896946 0.3896942 0.6977474 -0.5065317 0.5065315 0.874023 0.872642
0.3896944 -0.3896944 -0.3896946 0.4082483 -0.8164966 -0.4082484 0.624023 0.372642
0.3896944 0 -0.3896946 0.7071068 0 -0.7071068 0.563881 0.312500
0.62653 0 -0.3896946 0.9176121 -0.1689747 -0.3597717 0.624023 0.252358
0.3896944 -0.3896944 -0.3896946 0.4082483 -0.8164966 -0.4082484 0.997642 0.874023
0.62653 0 -0.3896946 0.9176121 -0.1689747 -0.3597717 0.875977 0.874023
1 -0.3896944 -0.3896946 0.6977472 -0.5065317 -0.5065317 0.875977 0.752358
0.3896944 0.3896945 -0.3896946 0.4082485 0.8164966 -0.4082481 0.622642 0.250977
0.3896944 0.3896945 0 0.7071068 0.7071068 0 0.562500 0.311119
0.62653 0.3896945 0 0.8104863 0.5857576 -1.99961e-07 0.502358 0.250977
0.3896944 0.3896945 -0.3896946 0.4082485 0.8164966 -0.4082481 0.877358 0.750977
0.62653 0.3896945 0 0.8104863 0.5857576 -1.99961e-07 0.999023 0.750977
1 0.3896945 -0.3896946 0.6977472 0.5065317 -0.506532 0.999023 0.872642
1 0.3896945 0.3896944 0.6977474 0.5065317 0.5065315 0.000977 0.749023
0.62653 -1.958585e-07 0.3896942 0.9853827 -1.128126e-07 0.1703555 0.000977 0.627358
0.62653 0.3896945 0 0.8104863 0.5857576 -1.99961e-07 0.122642 0.749023
0.62653 -0.3896944 -2.053725e-07 0.9176121 -0.3597717 0.1689744 0.625977 0.372642
0.62653 0 -0.3896946 0.9176121 -0.1689747 -0.3597717 0.625977 0.252358
0.62653 -0.3896944 -2.053725e-07 0.9176121 -0.3597717 0.1689744 0.310142 0.063477
0.4849462 0 -0.2338374 0.9087717 0.1319598 0.3958796 0.250977 0.122642
0.62653 -1.958585e-07 0.3896942 0.9853827 -1.128126e-07 0.1703555 0.747642 0.374023
0.62653 -0.3896944 -2.053725e-07 0.9176121 -0.3597717 0.1689744 0.627358 0.374023
0.4849462 -0.2338372 -2.053725e-07 0.8496311 0.5003143 -0.1667713 0.687500 0.313881
0.62653 -1.958585e-07 0.3896942 0.9853827 -1.128126e-07 0.1703555 0.250977 0.002358
0.4849462 -0.2338372 -2.053725e-07 0.8496311 0.5003143 -0.1667713 0.310142 0.061523
0.62653 0 -0.3896946 0.9176121 -0.1689747 -0.3597717 0.749023 0.252358
0.62653 0.3896945 0 0.8104863 0.5857576 -1.99961e-07 0.749023 0.372642
0.62653 0 -0.3896946 0.9176121 -0.1689747 -0.3597717 0.313477 0.064858
0.4849462 0.2338372 -2.053725e-07 0.8401131 -0.5424113 -8.691076e-08 0.372642 0.124023
0.4849462 0 -0.2338374 0.9087717 0.1319598 0.3958796 0.313477 0.124023
0.4849462 0 -0.2338374 0.9087717 0.1319598 0.3958796 0.747642 0.250977
0.4849462 0.2338372 -2.053725e-07 0.8401131 -0.5424113 -8.691076e-08 0.687500 0.311119
0.4849462 0 0.233837 0.9451283 1.744906e-08 -0.3266996 0.627358 0.250977
0.4849462 0 -0.2338374 0.9087717 0.1319598 0.3958796 0.750977 0.372642
0.4849462 0 0.233837 0.9451283 1.744906e-08 -0.3266996 0.750977 0.252358
0.4849462 -0.2338372 -2.053725e-07 0.8496311 0.5003143 -0.1667713 0.811119 0.312500
0.4849462 0.2338372 -2.053725e-07 0.8401131 -0.5424113 -8.691076e-08 0.812500 0.313881
0.62653 0.3896945 0 0.8104863 0.5857576 -1.99961e-07 0.872642 0.374023
0.62653 -1.958585e-07 0.3896942 0.9853827 -1.128126e-07 0.1703555 0.752358 0.374023
0.4849462 0.2338372 -2.053725e-07 0.8401131 -0.5424113 -8.691076e-08 0.252358 0.124023
0.62653 -1.958585e-07 0.3896942 0.9853827 -1.128126e-07 0.1703555 0.311523 0.064858
0.4849462 0 0.233837 0.9451283 1.744906e-08 -0.3266996 0.311523 0.124023
0.62653 -0.3896944 -2.053725e-07 0.9176121 -0.3597717 0.1689744 0.124023 0.747642
0.62653 -1.958585e-07 0.3896942 0.9853827 -1.128126e-07 0.1703555 0.002358 0.625977
1 -0.3896946 0.3896942 0.6977474 -0.5065317 0.5065315 0.124023 0.625977
0.62653 0 -0.3896946 0.9176121 -0.1689747 -0.3597717 0.125977 0.627358
0.62653 -0.3896944 -2.053725e-07 0.9176121 -0.3597717 0.1689744 0.247642 0.749023
1 -0.3896944 -0.3896946 0.6977472 -0.5065317 -0.5065317 0.125977 0.749023
0.62653 0.3896945 0 0.8104863 0.5857576 -1.99961e-07 0.249023 0.747642
0.62653 0 -0.3896946 0.9176121 -0.1689747 -0.3597717 0.127358 0.625977
1 0.3896945 -0.3896946 0.6977472 0.5065317 -0.506532 0.249023 0.625977
0.3896944 0.3896945 0.3896944 0.4082484 0.8164965 0.4082485 0.874023 0.372642
0.3896944 0.3896945 0.3896944 0.4082484 0.8164965 0.4082485 0.372642 0.749023
0 0.3896945 0.6265298 1.99961e-08 0.5857575 0.8104864 0.250977 0.749023
-0.3896944 0.3896945 0.3896944 -0.4082484 0.8164964 0.4082484 0.872642 0.250977
-0.3896944 -1.958585e-07 0.3896942 -0.7071068 -1.999059e-07 0.7071068 0.812500 0.311119
-0.3896944 0.3896945 0.3896944 -0.4082484 0.8164964 0.4082484 0.252358 0.625977
-0.3896944 -1.958585e-07 0.6265298 -0.3597717 -0.1689745 0.9176121 0.374023 0.625977
-0.3896944 -0.3896946 0.3896942 -0.4082483 -0.8164967 0.4082482 0.875977 0.252358
-0.3896944 -0.3896946 0.3896942 -0.4082483 -0.8164967 0.4082482 0.497642 0.749023
0 -0.3896946 0.6265298 0.1689746 -0.3597719 0.917612 0.375977 0.749023
0.3896944 -0.3896946 0.3896942 0.4082483 -0.8164967 0.4082482 0.877358 0.374023
0.3896944 -1.958585e-07 0.3896942 0.7071068 -1.999059e-07 0.7071068 0.937500 0.313881
0.3896944 -0.3896946 0.3896942 0.4082483 -0.8164967 0.4082482 0.377358 0.625977
0.3896944 -1.958585e-07 0.6265298 0.1703557 1.128127e-07 0.9853826 0.499023 0.625977
0.3896944 0.3896945 0.3896944 0.4082484 0.8164965 0.4082485 0.500977 0.627358
0.3896944 0.3896942 1 0.5065317 0.506532 0.6977472 0.622642 0.749023
0.3896944 -1.958585e-07 0.6265298 0.1703557 1.128127e-07 0.9853826 0.500977 0.749023
0.3896944 0.3896945 0.3896944 0.4082484 0.8164965 0.4082485 0.999023 0.252358
0.3896944 -1.958585e-07 0.6265298 0.1703557 1.128127e-07 0.9853826 0.999023 0.372642
0.3896944 -1.958585e-07 0.3896942 0.7071068 -1.999059e-07 0.7071068 0.938881 0.312500
0.3896944 -0.3896946 0.3896942 0.4082483 -0.8164967 0.4082482 0.624023 0.747642
0.3896944 -0.3896946 0.9999998 0.5065318 -0.5065318 0.6977472 0.502358 0.625977
0 -0.3896946 0.6265298 0.1689746 -0.3597719 0.917612 0.624023 0.625977
0.3896944 -0.3896946 0.3896942 0.4082483 -0.8164967 0.4082482 0.877358 0.250977
0 -0.3896946 0.6265298 0.1689746 -0.3597719 0.917612 0.997642 0.250977
0 -0.3896946 0.3896942 0 -1 0 0.937500 0.311119
-0.3896944 -0.3896946 0.3896942 -0.4082483 -0.8164967 0.4082482 0.625977 0.627358
-0.3896944 -0.3896946 0.9999998 -0.5065318 -0.5065318 0.6977472 0.747642 0.749023
-0.3896944 -1.958585e-07 0.6265298 -0.3597717 -0.1689745 0.9176121 0.625977 0.749023
-0.3896944 -0.3896946 0.3896942 -0.4082483 -0.8164967 0.4082482 0.000977 0.247642
-0.3896944 -1.958585e-07 0.6265298 -0.3597717 -0.1689745 0.9176121 0.000977 0.127358
-0.3896944 -1.958585e-07 0.3896942 -0.7071068 -1.999059e-07 0.7071068 0.061119 0.187500
-0.3896944 0.3896945 0.3896944 -0.4082484 0.8164964 0.4082484 0.749023 0.747642
-0.3896944 0.3896942 1 -0.5065317 0.506532 0.6977472 0.627358 0.625977
0 0.3896945 0.6265298 1.99961e-08 0.5857575 0.8104864 0.749023 0.625977
-0.3896944 0.3896945 0.3896944 -0.4082484 0.8164964 0.4082484 0.122642 0.249023
0 0.3896945 0.6265298 1.99961e-08 0.5857575 0.8104864 0.002358 0.249023
0 0.3896945 0.3896944 0 1 2.005742e-07 0.062500 0.188881
0.3896944 0.3896942 1 0.5065317 0.506532 0.6977472 0.750977 0.749023
0 0.3896945 0.6265298 1.99961e-08 0.5857575 0.8104864 0.750977 0.627358
0.3896944 -1.958585e-07 0.6265298 0.1703557 1.128127e-07 0.9853826 0.872642 0.749023
0 -0.3896946 0.6265298 0.1689746 -0.3597719 0.917612 0.374023 0.002358
0 -0.3896946 0.6265298 0.1689746 -0.3597719 0.917612 0.124023 0.247642
-0.2338372 -1.958585e-07 0.484946 0.3958795 0.1319599 0.9087718 0.063881 0.187500
-0.3896944 -1.958585e-07 0.6265298 -0.3597717 -0.1689745 0.9176121 0.124023 0.127358
0.3896944 -1.958585e-07 0.6265298 0.1703557 1.128127e-07 0.9853826 0.314858 0.063477
0 -0.2338374 0.484946 -0.1667715 0.5003144 0.849631 0.374023 0.122642
0.3896944 -1.958585e-07 0.6265298 0.1703557 1.128127e-07 0.9853826 0.122642 0.125977
0 -0.2338374 0.484946 -0.1667715 0.5003144 0.849631 0.062500 0.186119
0 -0.3896946 0.6265298 0.1689746 -0.3597719 0.917612 0.002358 0.125977
-0.3896944 -1.958585e-07 0.6265298 -0.3597717 -0.1689745 0.9176121 0.252358 0.000977
-0.2338372 -1.958585e-07 0.484946 0.3958795 0.1319599 0.9087718 0.311523 0.000977
-0.3896944 -1.958585e-07 0.6265298 -0.3597717 -0.1689745 0.9176121 0.125977 0.127358
0 0.233837 0.484946 5.794049e-08 -0.542411 0.8401133 0.186119 0.187500
0 0.3896945 0.6265298 1.99961e-08 0.5857575 0.8104864 0.125977 0.247642
-0.2338372 -1.958585e-07 0.484946 0.3958795 0.1319599 0.9087718 0.127358 0.249023
0 -0.2338374 0.484946 -0.1667715 0.5003144 0.849631 0.187500 0.188881
0.2338372 -1.958585e-07 0.484946 -0.3266995 6.979624e-08 0.9451283 0.247642 0.249023
-0.2338372 -1.958585e-07 0.484946 0.3958795 0.1319599 0.9087718 0.249023 0.127358
0.2338372 -1.958585e-07 0.484946 -0.3266995 6.979624e-08 0.9451283 0.249023 0.247642
0 0.233837 0.484946 5.794049e-08 -0.542411 0.8401133 0.188881 0.187500
0 0.233837 0.484946 5.794049e-08 -0.542411 0.8401133 0.313477 0.060142
0.2338372 -1.958585e-07 0.484946 -0.3266995 6.979624e-08 0.9451283 0.313477 0.000977
0.3896944 -1.958585e-07 0.6265298 0.1703557 1.128127e-07 0.9853826 0.372642 0.000977
0 0.233837 0.484946 5.794049e-08 -0.542411 0.8401133 0.187500 0.186119
0.3896944 -1.958585e-07 0.6265298 0.1703557 1.128127e-07 0.9853826 0.127358 0.125977
0 0.3896945 0.6265298 1.99961e-08 0.5857575 0.8104864 0.247642 0.125977
0 -0.3896946 0.6265298 0.1689746 -0.3597719 0.917612 0.752358 0.625977
0.3896944 -0.3896946 0.9999998 0.5065318 -0.5065318 0.6977472 0.874023 0.625977
0.3896944 -1.958585e-07 0.6265298 0.1703557 1.128127e-07 0.9853826 0.874023 0.747642
-0.3896944 -1.958585e-07 0.6265298 -0.3597717 -0.1689745 0.9176121 0.997642 0.749023
-0.3896944 -0.3896946 0.9999998 -0.5065318 -0.5065318 0.6977472 0.875977 0.749023
0 -0.3896946 0.6265298 0.1689746 -0.3597719 0.917612 0.875977 0.627358
0 0.3896945 0.6265298 1.99961e-08 0.5857575 0.8104864 0.877358 0.625977
-0.3896944 0.3896942 1 -0.5065317 0.506532 0.6977472 0.999023 0.625977
-0.3896944 -1.958585e-07 0.6265298 -0.3597717 -0.1689745 0.9176121 0.999023 0.747642
-0.3896944 -0.3896944 -0.3896946 -0.7071068 1.134619e-07 -0.7071068 0.250977 0.247642
-0.3896944 -0.6265299 -2.053725e-07 -0.5857573 -0.8104865 -1.99961e-07 0.250977 0.127358
-0.3896944 -0.3896946 0.3896942 -0.7071068 -1.13462e-07 0.7071067 0.372642 0.249023
0 -0.6265299 0.3896942 0.1689746 -0.9176121 0.3597717 0.252358 0.249023
0.3896944 -0.3896946 0.3896942 0.7071068 -1.13462e-07 0.7071068 0.374023 0.127358
0.3896944 -0.6265299 -2.053725e-07 0.3597717 -0.9176121 -0.1689747 0.374023 0.247642
0.3896944 -0.3896944 -2.053725e-07 0.7071068 -0.7071068 -1.776942e-07 0.313881 0.187500
0.3896944 -0.3896944 -0.3896946 0.7071068 1.134619e-07 -0.7071068 0.252358 0.125977
0 -0.6265298 -0.3896946 0 -0.9853826 -0.1703561 0.372642 0.125977
-0.3896944 -0.3896944 -0.3896946 -0.7071068 1.134619e-07 -0.7071068 0.375977 0.127358
0 -0.3896944 -0.3896946 0 1.604594e-07 -1 0.436119 0.187500
0 -0.6265298 -0.3896946 0 -0.9853826 -0.1703561 0.375977 0.247642
-0.3896944 -0.3896944 -0.3896946 -0.7071068 1.134619e-07 -0.7071068 0.372642 0.624023
0 -0.6265298 -0.3896946 0 -0.9853826 -0.1703561 0.250977 0.624023
-0.3896944 -0.9999999 -0.3896948 -0.5065315 -0.6977472 -0.506532 0.250977 0.502358
0.3896944 -0.3896944 -0.3896946 0.7071068 1.134619e-07 -0.7071068 0.377358 0.249023
0.3896944 -0.3896944 -2.053725e-07 0.7071068 -0.7071068 -1.776942e-07 0.437500 0.188881
0.3896944 -0.6265299 -2.053725e-07 0.3597717 -0.9176121 -0.1689747 0.497642 0.249023
0.3896944 -0.3896944 -0.3896946 0.7071068 1.134619e-07 -0.7071068 0.252358 0.500977
0.3896944 -0.6265299 -2.053725e-07 0.3597717 -0.9176121 -0.1689747 0.374023 0.500977
0.3896944 -0.9999999 -0.3896948 0.5065315 -0.6977472 -0.506532 0.374023 0.622642
0.3896944 -0.3896946 0.3896942 0.7071068 -1.13462e-07 0.7071068 0.499023 0.247642
0 -0.3896946 0.3896942 0 -1.604595e-07 1 0.438881 0.187500
0 -0.6265299 0.3896942 0.1689746 -0.9176121 0.3597717 0.499023 0.127358
0.3896944 -0.3896946 0.3896942 0.7071068 -1.13462e-07 0.7071068 0.497642 0.624023
0 -0.6265299 0.3896942 0.1689746 -0.9176121 0.3597717 0.375977 0.624023
0.3896944 -0.9999999 0.389694 0.5065318 -0.6977473 0.5065317 0.375977 0.502358
-0.3896944 -0.3896946 0.3896942 -0.7071068 -1.13462e-07 0.7071067 0.497642 0.125977
-0.3896944 -0.3896944 -2.053725e-07 -1 0 0 0.437500 0.186119
-0.3896944 -0.6265299 -2.053725e-07 -0.5857573 -0.8104865 -1.99961e-07 0.377358 0.125977
-0.3896944 -0.3896946 0.3896942 -0.7071068 -1.13462e-07 0.7071067 0.377358 0.500977
-0.3896944 -0.6265299 -2.053725e-07 -0.5857573 -0.8104865 -1.99961e-07 0.499023 0.500977
-0.3896944 -0.9999999 0.389694 -0.5065318 -0.6977473 0.5065317 0.499023 0.622642
-0.3896944 -0.9999999 -0.3896948 -0.5065315 -0.6977472 -0.506532 0.500977 0.624023
0 -0.6265298 -0.3896946 0 -0.9853826 -0.1703561 0.500977 0.502358
-0.3896944 -0.6265299 -2.053725e-07 -0.5857573 -0.8104865 -1.99961e-07 0.622642 0.624023
0.3896944 -0.6265299 -2.053725e-07 0.3597717 -0.9176121 -0.1689747 0.500977 0.247642
0 -0.6265299 0.3896942 0.1689746 -0.9176121 0.3597717 0.500977 0.127358
0.3896944 -0.6265299 -2.053725e-07 0.3597717 -0.9176121 -0.1689747 0.435142 0.063477
0 -0.4849462 0.233837 -0.1319598 -0.9087718 -0.3958794 0.375977 0.122642
0 -0.6265298 -0.3896946 0 -0.9853826 -0.1703561 0.622642 0.249023
0.3896944 -0.6265299 -2.053725e-07 0.3597717 -0.9176121 -0.1689747 0.502358 0.249023
0.2338372 -0.4849462 -2.053725e-07 -0.5003142 -0.8496311 0.1667713 0.562500 0.188881
0 -0.6265298 -0.3896946 0 -0.9853826 -0.1703561 0.375977 0.002358
0.2338372 -0.4849462 -2.053725e-07 -0.5003142 -0.8496311 0.1667713 0.435142 0.061523
0 -0.6265299 0.3896942 0.1689746 -0.9176121 0.3597717 0.624023 0.127358
-0.3896944 -0.6265299 -2.053725e-07 -0.5857573 -0.8104865 -1.99961e-07 0.624023 0.247642
0 -0.6265299 0.3896942 0.1689746 -0.9176121 0.3597717 0.438477 0.064858
-0.2338372 -0.4849462 -2.053725e-07 0.5424111 -0.8401133 -1.15881e-07 0.497642 0.124023
0 -0.4849462 0.233837 -0.1319598 -0.9087718 -0.3958794 0.438477 0.124023
0 -0.4849462 0.233837 -0.1319598 -0.9087718 -0.3958794 0.622642 0.125977
-0.2338372 -0.4849462 -2.053725e-07 0.5424111 -0.8401133 -1.15881e-07 0.562500 0.186119
0 -0.4849462 -0.2338374 0 -0.9451283 0.3266993 0.502358 0.125977
0 -0.4849462 0.233837 -0.1319598 -0.9087718 -0.3958794 0.625977 0.247642
0 -0.4849462 -0.2338374 0 -0.9451283 0.3266993 0.625977 0.127358
0.2338372 -0.4849462 -2.053725e-07 -0.5003142 -0.8496311 0.1667713 0.686119 0.187500
-0.2338372 -0.4849462 -2.053725e-07 0.5424111 -0.8401133 -1.15881e-07 0.687500 0.188881
-0.3896944 -0.6265299 -2.053725e-07 -0.5857573 -0.8104865 -1.99961e-07 0.747642 0.249023
0 -0.6265298 -0.3896946 0 -0.9853826 -0.1703561 0.627358 0.249023
-0.2338372 -0.4849462 -2.053725e-07 0.5424111 -0.8401133 -1.15881e-07 0.377358 0.124023
0 -0.6265298 -0.3896946 0 -0.9853826 -0.1703561 0.436523 0.064858
0 -0.4849462 -0.2338374 0 -0.9451283 0.3266993 0.436523 0.124023
0.3896944 -0.6265299 -2.053725e-07 0.3597717 -0.9176121 -0.1689747 0.624023 0.622642
0 -0.6265298 -0.3896946 0 -0.9853826 -0.1703561 0.502358 0.500977
0.3896944 -0.9999999 -0.3896948 0.5065315 -0.6977472 -0.506532 0.624023 0.500977
0 -0.6265299 0.3896942 0.1689746 -0.9176121 0.3597717 0.625977 0.502358
0.3896944 -0.6265299 -2.053725e-07 0.3597717 -0.9176121 -0.1689747 0.747642 0.624023
0.3896944 -0.9999999 0.389694 0.5065318 -0.6977473 0.5065317 0.625977 0.624023
-0.3896944 -0.6265299 -2.053725e-07 -0.5857573 -0.8104865 -1.99961e-07 0.749023 0.622642
0 -0.6265299 0.3896942 0.1689746 -0.9176121 0.3597717 0.627358 0.500977
-0.3896944 -0.9999999 0.389694 -0.5065318 -0.6977473 0.5065317 0.749023 0.500977
0.3896944 0.3896945 -0.3896946 0.7071068 4.058438e-07 -0.7071068 0.749023 0.127358
0.3896944 0.6265301 0 0.5857576 0.8104864 0 0.749023 0.247642
0.3896944 0.3896945 0 0.7071068 0.7071068 0 0.688881 0.187500
0.3896944 0.3896945 0.3896944 0.7071068 0 0.7071068 0.627358 0.125977
0 0.6265301 0.3896944 -0.1689746 0.917612 0.3597718 0.747642 0.125977
-0.3896944 0.3896945 0.3896944 -0.7071068 0 0.7071068 0.750977 0.247642
-0.3896944 0.6265301 0 -0.3597718 0.917612 -0.1689746 0.750977 0.127358
-0.3896944 0.3896945 -0.3896946 -0.7071068 4.058438e-07 -0.7071068 0.872642 0.249023
0 0.6265301 -0.3896944 0 0.9853827 -0.1703557 0.752358 0.249023
0.3896944 0.3896945 -0.3896946 0.7071068 4.058438e-07 -0.7071068 0.874023 0.247642
0 0.3896945 -0.3896946 0 5.739498e-07 -1 0.813881 0.187500
0 0.6265301 -0.3896944 0 0.9853827 -0.1703557 0.874023 0.127358
0.3896944 0.3896945 -0.3896946 0.7071068 4.058438e-07 -0.7071068 0.122642 0.499023
0 0.6265301 -0.3896944 0 0.9853827 -0.1703557 0.000977 0.499023
0.3896944 1 -0.3896944 0.5065314 0.6977476 -0.5065315 0.000977 0.377358
-0.3896944 0.3896945 -0.3896946 -0.7071068 4.058438e-07 -0.7071068 0.872642 0.125977
-0.3896944 0.3896945 0 -1 0 0 0.812500 0.186119
-0.3896944 0.6265301 0 -0.3597718 0.917612 -0.1689746 0.752358 0.125977
-0.3896944 0.3896945 -0.3896946 -0.7071068 4.058438e-07 -0.7071068 0.002358 0.375977
-0.3896944 0.6265301 0 -0.3597718 0.917612 -0.1689746 0.124023 0.375977
-0.3896944 1 -0.3896944 -0.5065314 0.6977476 -0.5065315 0.124023 0.497642
-0.3896944 0.3896945 0.3896944 -0.7071068 0 0.7071068 0.875977 0.127358
0 0.3896945 0.3896944 0 0 1 0.936119 0.187500
0 0.6265301 0.3896944 -0.1689746 0.917612 0.3597718 0.875977 0.247642
-0.3896944 0.3896945 0.3896944 -0.7071068 0 0.7071068 0.247642 0.499023
0 0.6265301 0.3896944 -0.1689746 0.917612 0.3597718 0.125977 0.499023
-0.3896944 1 0.3896944 -0.5065318 0.6977472 0.5065318 0.125977 0.377358
0.3896944 0.3896945 0.3896944 0.7071068 0 0.7071068 0.877358 0.249023
0.3896944 0.3896945 0 0.7071068 0.7071068 0 0.937500 0.188881
0.3896944 0.6265301 0 0.5857576 0.8104864 0 0.997642 0.249023
0.3896944 0.3896945 0.3896944 0.7071068 0 0.7071068 0.127358 0.375977
0.3896944 0.6265301 0 0.5857576 0.8104864 0 0.249023 0.375977
0.3896944 1 0.3896944 0.5065318 0.6977472 0.5065318 0.249023 0.497642
0.3896944 1 -0.3896944 0.5065314 0.6977476 -0.5065315 0.250977 0.499023
0 0.6265301 -0.3896944 0 0.9853827 -0.1703557 0.250977 0.377358
0.3896944 0.6265301 0 0.5857576 0.8104864 0 0.372642 0.499023
-0.3896944 0.6265301 0 -0.3597718 0.917612 -0.1689746 0.999023 0.127358
0 0.6265301 0.3896944 -0.1689746 0.917612 0.3597718 0.999023 0.247642
-0.3896944 0.6265301 0 -0.3597718 0.917612 -0.1689746 0.439858 0.061523
0 0.4849462 0.2338372 0.1319599 0.9087717 -0.3958796 0.499023 0.002358
0 0.6265301 -0.3896944 0 0.9853827 -0.1703557 0.877358 0.125977
-0.3896944 0.6265301 0 -0.3597718 0.917612 -0.1689746 0.997642 0.125977
-0.2338372 0.4849462 0 0.5003144 0.849631 0.1667715 0.937500 0.186119
0 0.6265301 -0.3896944 0 0.9853827 -0.1703557 0.499023 0.122642
-0.2338372 0.4849462 0 0.5003144 0.849631 0.1667715 0.439858 0.063477
0 0.6265301 0.3896944 -0.1689746 0.917612 0.3597718 0.000977 0.122642
0.3896944 0.6265301 0 0.5857576 0.8104864 0 0.000977 0.002358
0 0.6265301 0.3896944 -0.1689746 0.917612 0.3597718 0.436523 0.060142
0.2338372 0.4849462 0 -0.5424112 0.8401131 0 0.377358 0.000977
0 0.4849462 0.2338372 0.1319599 0.9087717 -0.3958796 0.436523 0.000977
0 0.4849462 0.2338372 0.1319599 0.9087717 -0.3958796 0.002358 0.124023
0.2338372 0.4849462 0 -0.5424112 0.8401131 0 0.062500 0.063881
0 0.4849462 -0.2338372 0 0.9451283 0.3266996 0.122642 0.124023
0 0.4849462 0.2338372 0.1319599 0.9087717 -0.3958796 0.124023 0.002358
0 0.4849462 -0.2338372 0 0.9451283 0.3266996 0.124023 0.122642
-0.2338372 0.4849462 0 0.5003144 0.849631 0.1667715 0.063881 0.062500
0.2338372 0.4849462 0 -0.5424112 0.8401131 0 0.062500 0.061119
0.3896944 0.6265301 0 0.5857576 0.8104864 0 0.002358 0.000977
0 0.6265301 -0.3896944 0 0.9853827 -0.1703557 0.122642 0.000977
0.2338372 0.4849462 0 -0.5424112 0.8401131 0 0.497642 0.000977
0 0.6265301 -0.3896944 0 0.9853827 -0.1703557 0.438477 0.060142
0 0.4849462 -0.2338372 0 0.9451283 0.3266996 0.438477 0.000977
-0.3896944 0.6265301 0 -0.3597718 0.917612 -0.1689746 0.374023 0.497642
0 0.6265301 -0.3896944 0 0.9853827 -0.1703557 0.252358 0.375977
-0.3896944 1 -0.3896944 -0.5065314 0.6977476 -0.5065315 0.374023 0.375977
0 0.6265301 0.3896944 -0.1689746 0.917612 0.3597718 0.375977 0.377358
-0.3896944 0.6265301 0 -0.3597718 0.917612 -0.1689746 0.497642 0.499023
-0.3896944 1 0.3896944 -0.5065318 0.6977472 0.5065318 0.375977 0.499023
0.3896944 0.6265301 0 0.5857576 0.8104864 0 0.499023 0.497642
0 0.6265301 0.3896944 -0.1689746 0.917612 0.3597718 0.377358 0.375977
0.3896944 1 0.3896944 0.5065318 0.6977472 0.5065318 0.499023 0.375977
3 0 1 2 
3 106 107 3 
3 4 5 6 
3 108 109 7 
3 8 9 10 
3 110 111 11 
3 12 13 14 
3 112 113 15 
3 114 115 116 
3 117 118 119 
3 120 121 122 
3 123 124 125 
3 126 127 128 
3 129 130 131 
3 132 133 134 
3 135 136 137 
3 138 139 140 
3 141 16 17 
3 142 143 144 
3 145 18 146 
3 147 148 149 
3 150 151 19 
3 152 153 154 
3 155 156 157 
3 158 159 160 
3 161 162 163 
3 164 165 166 
3 167 168 169 
3 170 171 172 
3 173 174 175 
3 176 20 21 
3 177 178 22 
3 23 24 25 
3 179 180 26 
3 27 28 29 
3 181 182 30 
3 183 31 32 
3 184 185 186 
3 187 188 189 
3 190 191 192 
3 193 194 195 
3 196 197 198 
3 199 200 201 
3 202 203 204 
3 205 206 207 
3 208 209 210 
3 211 212 213 
3 214 215 33 
3 216 217 34 
3 218 219 220 
3 221 222 35 
3 223 224 36 
3 225 226 227 
3 228 229 230 
3 231 232 233 
3 234 235 236 
3 237 238 239 
3 240 241 242 
3 243 244 245 
3 246 247 248 
3 37 38 39 
3 249 250 40 
3 251 41 42 
3 252 253 254 
3 255 43 44 
3 256 257 45 
3 46 47 48 
3 258 259 49 
3 260 261 262 
3 263 264 265 
3 266 267 268 
3 269 270 271 
3 272 273 274 
3 275 276 277 
3 278 279 280 
3 281 282 283 
3 284 285 286 
3 287 288 50 
3 289 290 51 
3 291 292 293 
3 294 295 52 
3 296 297 53 
3 298 299 300 
3 301 302 303 
3 304 305 306 
3 307 308 309 
3 310 311 312 
3 313 314 315 
3 316 317 318 
3 319 320 321 
3 322 54 55 
3 323 324 56 
3 325 326 57 
3 327 328 58 
3 329 59 60 
3 330 331 61 
3 332 333 62 
3 334 335 63 
3 336 337 338 
3 339 340 341 
3 342 343 344 
3 345 346 347 
3 348 349 350 
3 351 352 353 
3 354 355 356 
3 357 358 359 
3 360 361 362 
3 363 64 65 
3 364 365 366 
3 367 66 368 
3 369 370 371 
3 372 373 67 
3 374 375 376 
3 377 378 379 
3 380 381 382 
3 383 384 385 
3 386 387 388 
3 389 390 391 
3 392 393 394 
3 395 396 397 
3 68 69 70 
3 398 399 71 
3 72 73 74 
3 400 401 75 
3 76 77 78 
3 402 403 404 
3 79 80 81 
3 405 406 82 
3 407 408 409 
3 410 411 412 
3 413 414 415 
3 416 417 418 
3 419 420 421 
3 422 423 424 
3 425 426 427 
3 428 429 430 
3 431 432 433 
3 434 435 83 
3 436 437 84 
3 438 439 440 
3 441 442 85 
3 443 444 86 
3 445 446 447 
3 448 449 450 
3 451 452 453 
3 454 455 456 
3 457 458 459 
3 460 461 462 
3 463 464 465 
3 466 467 468 
3 87 88 89 
3 469 470 471 
3 90 91 92 
3 472 473 93 
3 94 95 96 
3 474 475 97 
3 98 99 100 
3 476 477 101 
3 478 479 480 
3 481 482 483 
3 484 485 486 
3 487 488 489 
3 490 491 492 
3 493 494 495 
3 496 497 498 
3 499 500 501 
3 502 503 504 
3 505 506 102 
3 507 508 103 
3 509 510 511 
3 512 513 104 
3 514 515 105 
3 516 517 518 
3 519 520 521 
3 522 523 524 
3 525 526 527 
3 528 529 530 
3 531 532 533 
3 534 535 536 
3 537 538 539 
