ply
format ascii 1.0
comment VCGLIB generated
element vertex 48
property float x
property float y
property float z
property float nx
property float ny
property float nz
property float texture_u
property float texture_v
element face 16
property list uchar int vertex_indices
end_header
0 -1 -4.041874e-07 0 -1 0 0.330976 0.999023
-1 0 -2.020937e-07 -1 0 0 0.000977 0.999023
0 2.890973e-07 -1 0 0 -1 0.000977 0.669024
0 -1 -4.041874e-07 0 -1 0 0.332357 0.997642
1 0 -2.020937e-07 1 0 0 0.002358 0.667643
0 -1.927316e-07 0.9999998 0 0 1 0.332357 0.667643
0 1 0 0 1 0 0.664309 0.999023
0 -1.927316e-07 0.9999998 0 0 1 0.334310 0.669024
0 1 0 0 1 0 0.665690 0.667643
0 -1 -4.041874e-07 -0.9985495 -0.03807302 0.03807302 0.667643 0.669024
0 -1.927316e-07 0.9999998 -0.9985495 -0.03807302 0.03807302 0.997642 0.999023
-0.03542702 -0.03542695 0.03542682 -0.9985495 -0.03807302 0.03807302 0.667643 0.999023
0 -1.927316e-07 0.9999998 -0.03807302 -0.9985495 0.03807302 0.999023 0.997642
-1 0 -2.020937e-07 -0.03807302 -0.9985495 0.03807302 0.669024 0.667643
-0.03542702 -0.03542695 0.03542682 -0.03807302 -0.9985495 0.03807302 0.999023 0.667643
-1 0 -2.020937e-07 -0.03807301 -0.03807301 0.9985494 0.000977 0.335691
0 -1 -4.041874e-07 -0.03807301 -0.03807301 0.9985494 0.330976 0.665690
-0.03542702 -0.03542695 0.03542682 -0.03807301 -0.03807301 0.9985494 0.000977 0.665690
0 -1 -4.041874e-07 0.9985495 -0.03807302 -0.03807302 0.332357 0.664309
0 2.890973e-07 -1 0.9985495 -0.03807302 -0.03807302 0.002358 0.334310
0.03542702 -0.03542695 -0.03542723 0.9985495 -0.03807302 -0.03807302 0.332357 0.334310
0 2.890973e-07 -1 0.03807302 -0.9985495 -0.03807302 0.334310 0.335691
1 0 -2.020937e-07 0.03807302 -0.9985495 -0.03807302 0.664309 0.665690
0.03542702 -0.03542695 -0.03542723 0.03807302 -0.9985495 -0.03807302 0.334310 0.665690
1 0 -2.020937e-07 0.03807301 -0.03807301 -0.9985494 0.665690 0.664309
0 -1 -4.041874e-07 0.03807301 -0.03807301 -0.9985494 0.335691 0.334310
0.03542702 -0.03542695 -0.03542723 0.03807301 -0.03807301 -0.9985494 0.665690 0.334310
0 2.890973e-07 -1 -0.03807302 0.9985495 -0.03807302 0.667643 0.335691
-1 0 -2.020937e-07 -0.03807302 0.9985495 -0.03807302 0.997642 0.665690
-0.03542702 0.03542705 -0.03542723 -0.03807302 0.9985495 -0.03807302 0.667643 0.665690
-1 0 -2.020937e-07 -0.03807301 0.03807301 -0.9985494 0.999023 0.664309
0 1 0 -0.03807301 0.03807301 -0.9985494 0.669024 0.334310
-0.03542702 0.03542705 -0.03542723 -0.03807301 0.03807301 -0.9985494 0.999023 0.334310
0 1 0 -0.9985495 0.03807302 -0.03807302 0.000977 0.002358
0 2.890973e-07 -1 -0.9985495 0.03807302 -0.03807302 0.330976 0.332357
-0.03542702 0.03542705 -0.03542723 -0.9985495 0.03807302 -0.03807302 0.000977 0.332357
0 -1.927316e-07 0.9999998 0.03807301 0.9985494 0.03807402 0.332357 0.330976
1 0 -2.020937e-07 0.03807301 0.9985494 0.03807402 0.002358 0.000977
0.03542702 0.03542705 0.03542682 0.03807301 0.9985494 0.03807402 0.332357 0.000977
1 0 -2.020937e-07 0.03807301 0.03807301 0.9985494 0.334310 0.002358
0 1 0 0.03807301 0.03807301 0.9985494 0.664309 0.332357
0.03542702 0.03542705 0.03542682 0.03807301 0.03807301 0.9985494 0.334310 0.332357
0 1 0 0.9985495 0.03807302 0.03807302 0.665690 0.330976
0 -1.927316e-07 0.9999998 0.9985495 0.03807302 0.03807302 0.335691 0.000977
0.03542702 0.03542705 0.03542682 0.9985495 0.03807302 0.03807302 0.665690 0.000977
-1 0 -2.020937e-07 -1 0 0 0.334310 0.999023
1 0 -2.020937e-07 1 0 0 0.665690 0.997642
0 2.890973e-07 -1 0 0 -1 0.335691 0.667643
3 0 1 2 
3 3 4 5 
3 6 45 7 
3 8 46 47 
3 9 10 11 
3 12 13 14 
3 15 16 17 
3 18 19 20 
3 21 22 23 
3 24 25 26 
3 27 28 29 
3 30 31 32 
3 33 34 35 
3 36 37 38 
3 39 40 41 
3 42 43 44 
